<svg xmlns="http://www.w3.org/2000/svg" width="361.65" height="353.662" viewBox="0 0 361.65 353.662">
  <g id="charizard" transform="translate(0 -0.01)">
    <path id="Caminho_55" data-name="Caminho 55" d="M254.45,135.7l-.65-.45.85,1.8a6.463,6.463,0,0,0,1.8,1.9l1.4,1.25-.05-1.4q-.1-1-3.35-3.1m29.5-15.15a28.135,28.135,0,0,1,2.35-5.65l1.7-3.05a1.363,1.363,0,0,1,1.65-.6,1.261,1.261,0,0,1,.9,1.45l-.5,6.9a76.54,76.54,0,0,0-.2,9.9,3.856,3.856,0,0,0,.65,1.9l1.45,1.1,2.1,1.25a7.309,7.309,0,0,1,2.15,2.15q1.8,2.85,2.4,8.8.6,5.5-.25,8.2a2.864,2.864,0,0,0-.1,1.65,3.7,3.7,0,0,0,.9,1.5l1.15.65,1,.75.4,1.75a2.521,2.521,0,0,1-.7,1.4l-1.1,1.5a4.248,4.248,0,0,0-.6,2l.3,2.05a5.736,5.736,0,0,1-.15,2.6,1.881,1.881,0,0,1-1.85,1.45,7.692,7.692,0,0,0-2.2,0,3.76,3.76,0,0,0-3.1,3.55,4.172,4.172,0,0,0,.1,2.6l.95.3,1.15.3,1.55.35a1.868,1.868,0,0,1,1.05,1.5l-.75,1.05-1.4,1.7-1.85,1.95q-1.2,1.35-.55,1.9.45.35,1.7-1.45a25.162,25.162,0,0,1,2.85-3.6,17.364,17.364,0,0,1,6.55-4.15q4.15-1.6,4.15-1.25l-.75,1-.8.95q3.3-1.6,9.2-3.8l2.35-.4q1.8-.25,1.85,0,.1.45-1.35,1.5l-1.9,1.3-12.85,10.05a19.03,19.03,0,0,0-3.95,4.65,17.575,17.575,0,0,0-2.2,4.15,3.108,3.108,0,0,1-1.25,1.75l-1.8,1.05-.95.7.05.3a10.013,10.013,0,0,1-.1,3.95l-1.05,1.1-1.15.95q11.75,19.25,15.25,38.2,5.3,28.4-9.55,50.3Q278,320.4,251.4,327.45a99.4,99.4,0,0,1-26,2.9L197,328.3q-24.2-2.75-45-18.25a101.407,101.407,0,0,1-12.15-10.7l-4.65-5.2.85-4.15,81.2-21.85,1.4,5.9,2.3-2.1a2.784,2.784,0,0,0,0-1.65,2.466,2.466,0,0,0-.65-1.05l11.4,5.65a30.967,30.967,0,0,0,23.5,1.9q14.6-4.45,24.9-21.7,6.8-11.4,5.6-26.6a70.771,70.771,0,0,0-5.95-23.05q-3.7.15-4.2.7a6.025,6.025,0,0,1-2.75,2q-2.75.85-6.95-2l-.2-.15q-1.35-.9-1.15-3.8l-.15-1.5-.45-1.1a3.371,3.371,0,0,0-1.25-.8l-2.05-.85-2.05.2-2.45,1.05a20.348,20.348,0,0,1-3.5,1.85q-2.2.55-3.55-3.05l-1.1-4.25-.25-.75-1.15-2.45a2.912,2.912,0,0,1,.3-2.75,15.376,15.376,0,0,0,1.05-4.15,28.518,28.518,0,0,0,.5-5.1l-.05-2.05a6.485,6.485,0,0,1,.6-2.75,15.27,15.27,0,0,1,1.35-2.15l1.65-2.65.5-1.95-.25-1.75a10.9,10.9,0,0,1-.4-3.4l.15-2.45a8.211,8.211,0,0,1,.55-2.55,26.774,26.774,0,0,1,1.35-2.45,4.236,4.236,0,0,0,.75-2,38.864,38.864,0,0,0-1.75-5.65,37.818,37.818,0,0,1-1.95-6.3,28.021,28.021,0,0,1-.3-4.25l.05-2.05a1.353,1.353,0,0,1,.55-.95l-4.45-3.9a1.266,1.266,0,0,1-.45-.85,1.21,1.21,0,0,1,.25-1,1.3,1.3,0,0,1,.8-.55l.95.15a37.973,37.973,0,0,0,5.95,2.65l2.65-.05,1.2-.2q2.65-.4,5.75,2.7l.4.45-.65-5.4q-.15-2.15,1.55-6.75,1.3-3.3,3.2-7.1a21.408,21.408,0,0,0,1.3-6.3l.4-6.5a1.183,1.183,0,0,1,1.05-1.3,1.261,1.261,0,0,1,1.55.7l.65,1.7a12.3,12.3,0,0,1,.65,3.8,27.981,27.981,0,0,0,.7,4.7l-.45-4.05a1.506,1.506,0,0,1,.25-1,1.373,1.373,0,0,1,.9-.6,1.7,1.7,0,0,1,1.05.25,1.246,1.246,0,0,1,.55.85l.45,2a23.45,23.45,0,0,0,1.3,3.7,7.753,7.753,0,0,1,.6,3.4l-.4,3.35-.35,2.25q-.1,1.6,2.75,5.35l1.2,1.6.55.95.15-2.1a30,30,0,0,1,.75-5.55" fill="#0d131a"/>
    <path id="Caminho_56" data-name="Caminho 56" d="M281.55,148.35l.9-.5q.35.15,0,1.55a19.466,19.466,0,0,0-.45,4.9,18.842,18.842,0,0,0,.55,4.5,8.546,8.546,0,0,0,1.45,2.85,4.368,4.368,0,0,1,.9,2.3,23.165,23.165,0,0,1-.4,4.9.738.738,0,0,0,.35.7q.3.2.95-.35a7.486,7.486,0,0,0,1.15-2.2,3.574,3.574,0,0,0,.05-1.8,4.314,4.314,0,0,1,.4-2.3l.8-1.65q.45-.9.9-.75l.15.85L289,163.9l.6.9.25,1.5a20.391,20.391,0,0,1-1.4,3.8l-1.15,3.35a6.645,6.645,0,0,0-.45,2.55q.25,2.35.95,2.35l.4-.65.4-1.35,1.6-3.05a12.7,12.7,0,0,1,1.9-2.25,8.5,8.5,0,0,0-1.1,4.15,6.049,6.049,0,0,0,.5,2.2q.35.8,2,1.15,1.6.25,1.7.95.1.8-1.1,1.8l-1.9,1.65a3.407,3.407,0,0,0-.8,1.95,1.768,1.768,0,0,0,.8,1.75q1,.7,2.9-1.95l2.85-3.85a38.246,38.246,0,0,1,6.9-3.9l-3.2,2.75a6.5,6.5,0,0,0-1.35,1.75l-.5,1.05,2-1.35q2.4-1.55,4.25-2.6a88.2,88.2,0,0,1,9.9-4.15l-13.15,9.45a29.323,29.323,0,0,0-4.55,4.55,15.534,15.534,0,0,0-2.6,4.25,6.427,6.427,0,0,1-2.1,2.6l-2.3,1.75a1.582,1.582,0,0,0-.25,1.45l.05,2.5a2.971,2.971,0,0,1-1,1.55l-7.4-8-3.2-2.85-1.75-1.25,3.65,4.95-2.8.3-.65.85-2.05-3.75.2,1.7a42.489,42.489,0,0,0,1.55,5.5l-2.15.2-1.3.4-.85-.05q-1.45-1.25-1.55-1.75a.735.735,0,0,1,.2-.6l.35-.45a7.266,7.266,0,0,0-.65-6.3,10.817,10.817,0,0,0-2.95-2.35,7.963,7.963,0,0,0-3.65-1.35,4.233,4.233,0,0,0-1.6.55l-1.75.8q-.95.25-1.6-.85a19.455,19.455,0,0,1-1.7-4.75q-.6-2.8.05-3.45a19.222,19.222,0,0,1,4.4-2.4l2.55-1.45a3.172,3.172,0,0,0,1.35-1.55q.6-1.65-1.3-4-2.5-3.05-1.1-5.85a4.813,4.813,0,0,1,2.9-2.15,8.333,8.333,0,0,0,2.9-2.15l1.55-2.85,1.3-3.95q.5-1.8.95-1.8.3,0,.4,1.4a16.663,16.663,0,0,1-.2,3.65l-.4,2.4q-.1.7.1.9a.887.887,0,0,0,.85.25,4.03,4.03,0,0,0,2.3-1.55,11.331,11.331,0,0,0,1.55-4.6,11.422,11.422,0,0,1,1.75-4.45l1.25-1.5" fill="#efe908"/>
    <path id="Caminho_57" data-name="Caminho 57" d="M285.25,120.9a27.2,27.2,0,0,1,2.35-5.45l1.6-2.85-.5,6.9a69.019,69.019,0,0,0-.2,10.15,4.869,4.869,0,0,0,2.2,3.75,12.307,12.307,0,0,1,3.55,3.15,22.836,22.836,0,0,1,2.6,8.25q.9,5.4.2,7.7a3.858,3.858,0,0,0,.65,3.5l1.85,2.5q.45.95.15,1.4a7.815,7.815,0,0,0-1.05,1.6,5.607,5.607,0,0,0-.45,2.4,8.894,8.894,0,0,1-.5,3.1,3.184,3.184,0,0,1-2.25,2.1,7.745,7.745,0,0,0-2.95,1.4l-.8,1.05a14.979,14.979,0,0,0-2.75,4.35l-.6,1.9-.45.9q-.3.1-.6-.55l-.5-1.8a6.234,6.234,0,0,1,.25-2.5L288,171l1.05-2.6.6-2-.05-1.2-.4-.55a2.15,2.15,0,0,1-.4-1.2l.25-1.85q.15-.8-.05-.85-.45-.1-1.25,1.75a4.79,4.79,0,0,0-.6,2.6v1.75q-1.1,3.1-2.25,2.9-.85-.15-.4-1.9l.25-3.5a4.079,4.079,0,0,0-.7-2.4,8.1,8.1,0,0,1-1.4-2.5,22.1,22.1,0,0,1-.9-7.35,12.43,12.43,0,0,1,.6-2.95q.7-2.35-1.4.15a11.6,11.6,0,0,0-2.1,4.5q-.9,4.2-2.05,5.6a3.905,3.905,0,0,1-1.1.8,2.656,2.656,0,0,1-1.4.4l-.6-.4-.15-.55.7-5.25q.15-2.25-.3-2.25-.25,0-.55.95l-.7,2.25a16.809,16.809,0,0,1-2,4.75l-1.9,1.75L266.9,163a5.513,5.513,0,0,0-1.35.7,3.692,3.692,0,0,0-1,1.5,4.343,4.343,0,0,0-.15,3.35l1.4,2.3,1.15,1.95a2.849,2.849,0,0,1,.05,1.9,4.4,4.4,0,0,1-1.4,1.5l-3.35,1.9a10.17,10.17,0,0,0-3.55,2.05q-1.25,1.3,1.55,7.95a1.135,1.135,0,0,0,1.4.75l1.6-.75a5.147,5.147,0,0,1,2.15-.6,8.117,8.117,0,0,1,3.4,1.5,13.624,13.624,0,0,1,2.95,2.15,5.446,5.446,0,0,1,1,2.85,7.144,7.144,0,0,1,0,2.95l-.7,1.25a.6.6,0,0,0,.1.85l1,.95a1.2,1.2,0,0,0,1.05.35l1.35-.45,1.95-.2,1.1,2.95-.5-.1q-1.15-.25-2.9,1.6l-2.6,2.35q-1.55.4-6-2.55a1.569,1.569,0,0,1-.75-1.45,5.551,5.551,0,0,0-.2-2.25,3.513,3.513,0,0,0-1.8-2,19.418,19.418,0,0,1-2.8-1.25l-3.8.2-3.6,1.45q-1.25.3-2.65-1.7a15.066,15.066,0,0,1-1.75-3.6l-.75-2.65a3.475,3.475,0,0,1,.55-2.45q.7-1.15.8-5.55l-.1-6.2a5.743,5.743,0,0,1,1.15-3.3l2.3-3.65a5.923,5.923,0,0,0,.5-3.85,19.78,19.78,0,0,1-.5-3.75,21.22,21.22,0,0,1,1.55-5,11.712,11.712,0,0,0,1.2-4.7,29.532,29.532,0,0,0-1.75-5.85,51.9,51.9,0,0,1-1.95-6.15,22.574,22.574,0,0,1-.25-4.1l.05-1.9.25.95a13.718,13.718,0,0,0,1.15,2.5,8.339,8.339,0,0,0,2.05,2.3,11.429,11.429,0,0,1,2.3,2.35,6.454,6.454,0,0,1,.95,2.55,24.087,24.087,0,0,0,.45-6.25,4.533,4.533,0,0,0-2-2.8l-3.1-2.05q-1-.7-3.8-3.2l-2.65-2.35,2.45,1.2a23.925,23.925,0,0,0,3.8,1.6l2.25.15,2.1-.4q2.05-.3,4.65,2.3a3.911,3.911,0,0,1,.75,2.05,7.5,7.5,0,0,0,1.3,3.05,10.756,10.756,0,0,1,2.1,3.9q-1.85-12-2.1-15-.15-2,1.65-6.5a65.98,65.98,0,0,1,3-6.65q1-2,1.5-7.85l.3-5.5.6,1.45a10.767,10.767,0,0,1,.6,3.4,27.711,27.711,0,0,0,.6,4.5l.75,4.7q.25,2.75.45,2.3a10.574,10.574,0,0,0,1.4-3q.7-2.05-.25-8.05l.5,2.05,1.35,3.95a7.664,7.664,0,0,1,.4,4.05l-.6,4.25a6.915,6.915,0,0,0,1.45,4.15l2.7,3.7a9.3,9.3,0,0,1,1.6,4.6,12.2,12.2,0,0,0,1.4-3.7l.3-3.5a21.84,21.84,0,0,1,.6-4.55" fill="#e50020"/>
    <path id="Caminho_58" data-name="Caminho 58" d="M153.25,307.6a111.021,111.021,0,0,1-12.15-10.2l-4.25-4.5,38.9-10.45a73.651,73.651,0,0,0,14,18.55,60.413,60.413,0,0,0,30.6,16.2q32.75,6.4,62.2-14.3a60.09,60.09,0,0,0,11.5-10.8Q275.6,318.55,249.9,325a96.163,96.163,0,0,1-24.9,2.55l-26.95-2.05q-23.65-2.7-44.8-17.9" fill="#ddd583"/>
    <path id="Caminho_59" data-name="Caminho 59" d="M179.85,281.45l17.65-4.8q6.8,12.35,20.8,19.85a66.213,66.213,0,0,0,31.65,7.65,67.408,67.408,0,0,0,28.1-5.9,53.423,53.423,0,0,0,20.4-15.65,53.373,53.373,0,0,1-16.95,18.8q-28.95,19.55-60.85,13.3a53.07,53.07,0,0,1-28.3-15.4,78.835,78.835,0,0,1-12.5-17.85" fill="#d18200"/>
    <path id="Caminho_60" data-name="Caminho 60" d="M278.4,195.25l-.7-3.95,2.05,1.8,1.8,2.55,6.05,8.15a104.494,104.494,0,0,1,13,26.2q4.95,14.4,4.95,24.95a56.639,56.639,0,0,1-7.1,27.65,53.423,53.423,0,0,1-20.4,15.65,67.408,67.408,0,0,1-28.1,5.9,66.213,66.213,0,0,1-31.65-7.65q-14-7.5-20.8-19.85l20.55-5.55,1.1,1.05a108.238,108.238,0,0,0,11.2,6,33.911,33.911,0,0,0,25.5,1.95q16.1-4.8,27.1-23.15,7.1-11.85,5.4-28.1a83.443,83.443,0,0,0-6.75-24.35,93.254,93.254,0,0,0-4.7-9.6l-.5-2.35,2,2.7" fill="#f29600"/>
    <path id="Caminho_61" data-name="Caminho 61" d="M189.25,295.85a84.2,84.2,0,0,1-9.4-14.4L218,271.15l.15.25a10.6,10.6,0,0,0,2.15,1.5,39.981,39.981,0,0,1-11.5,38,55.034,55.034,0,0,1-19.55-15.05" fill="#d18200"/>
    <path id="Caminho_62" data-name="Caminho 62" d="M146.6,302.45a42.107,42.107,0,0,1-4.5-10.95l33.65-9.05A69.977,69.977,0,0,0,185.95,297a63.964,63.964,0,0,0,20.8,15.75,40.478,40.478,0,0,1-11.6,6.7,39.738,39.738,0,0,1-13.65,2.5,102.694,102.694,0,0,1-34.9-19.5" fill="#ddd583"/>
    <path id="Caminho_63" data-name="Caminho 63" d="M100.05,45.2,85.5,61.3q-.9,1.25-.9,7.05A74.732,74.732,0,0,0,85.9,81.9a66.162,66.162,0,0,0,3.6,11.85q2.85,7.5,4.9,10l7.4,8.35,6.85,7.75q1.55,2.25,2.2,7.45a89.144,89.144,0,0,0,2.3,11.8,44.644,44.644,0,0,0,3.1,6.95q1.35,2.4,4.05,6.45a75.312,75.312,0,0,0,8.45,10.25l2.2-.9,2.65-.15a3.23,3.23,0,0,1,1.9,2.5l.65,3.4,3.15,2.1a2.88,2.88,0,0,1,1.2,1.9,2.808,2.808,0,0,1-.55,2.1l-7.3,9.45-4.6,11.65a2.532,2.532,0,0,1-2.1,1.7,3.521,3.521,0,0,1-2.05-.5l-1.8-1.2a121.844,121.844,0,0,0-10.9-11.6q-8.4-7.75-13.4-8.7a14.552,14.552,0,0,0-7.5.6q-1.15.45-6,2.85a25.966,25.966,0,0,1-4.35,1.85,5.428,5.428,0,0,1-4-.3,3.047,3.047,0,0,1-1.65-2.55l.1-2.3.25-1.1a10.143,10.143,0,0,0-1.4-6.35,13.347,13.347,0,0,0-4.65-4.25,20.856,20.856,0,0,0-11.45-3.25q-14.65,0-30.9,12.2a92.246,92.246,0,0,0-16,15.05,26.36,26.36,0,0,0,0,5.15l.3,3.25a8.063,8.063,0,0,1-1.2,4.4,3.571,3.571,0,0,1-3,1.95,4.145,4.145,0,0,1-2.95-1.25,6.7,6.7,0,0,1-1.9-4.5l-.05-.3Q.4,183.75.1,176.85a34.984,34.984,0,0,1,0-5.6q.9-6.15,4-19.45Q7,139.3,9.35,131.1q2.05-7.2,6.6-19.55Q20.2,100,21.5,97.7q1.7-3.05,13.6-16.9Q46.85,67.15,49.8,64.75a36.533,36.533,0,0,1,7.8-4.4l3.2-1.45a17.571,17.571,0,0,0,2.5-1.3L75.7,48l12.8-9.75A17.145,17.145,0,0,1,95.65,35q3.55-.55,5.3,1.45a5.38,5.38,0,0,1,1.2,3.9,7.7,7.7,0,0,1-2.1,4.85" fill="#0d131a"/>
    <path id="Caminho_64" data-name="Caminho 64" d="M49.45,86.45q10.95-9.3,12.8-10.1a19.353,19.353,0,0,1,7,.8q4.55,1.2,5.4,2.55Q75.2,80.75,81,99l2.75,8.2q1.05,2.75,14.65,14.6,1.75,1.55,4.5,10.95l1.2,4,2.35,9.05,3.2,13.15q1.05,4.05,1.9,4.6a43.462,43.462,0,0,1,7.6,7.15q.8.95,3.4,7.3l4.7,11.85-1.75,3.95a127.234,127.234,0,0,0-9.5-9.4q-10.8-9.65-17.3-10.85-6.2-1.15-13.6,2.2l-4.6,2.15q-2.15.85-3.2.3-.55-.3-.75-2.05l-.1-1.65a5.615,5.615,0,0,0,.35-2.2,12.225,12.225,0,0,0-1.65-5.8q-1.4-2.65-5.6-4.95A25.441,25.441,0,0,0,57,158.5q-14.2,0-29.3,10.25a95.82,95.82,0,0,0-17.4,15.3q.55-20.2,1.2-22.65,2.15-8.75,9.2-28.75,9.4-26.55,15.05-33.7,2.4-3,13.7-12.5" fill="#008086"/>
    <path id="Caminho_65" data-name="Caminho 65" d="M97.45,43.9Q84.85,57.3,82.4,60.35q-1.6,2.05-1.05,9.7a106.034,106.034,0,0,0,1.6,11.85A62.027,62.027,0,0,0,87,94.2q3.3,7.8,5.7,10.75l13.7,16q1.4,1.85,2.45,8.2a80.19,80.19,0,0,0,2,9.8q1.3,3.8,2.65,6.75l3.35,6.5a56.622,56.622,0,0,0,6.2,8.7q4.05,4.85,4.85,5.15l1.8-.55a2.825,2.825,0,0,1,2.05-.4q1.4.45,1.85,4.15l4.15,2.75-7.5,9.8-1.05,2.6q-6.05-13.65-7.8-15.6-5.35-6.15-8.8-8.45-.95-1.1-4.85-16.4l-2.4-9.2-1.2-3.95-1.85-5.85A10.792,10.792,0,0,0,99.75,121l-7.7-7.5q-5.6-5.75-6.1-7.1L83.2,98.3Q76.6,78.5,76,77.6q-1.3-2.15-6.75-3.5a21.657,21.657,0,0,0-7.95-.75q-1.85.3-13.95,10.9Q35.65,94.45,33.5,97.2q-6.15,7.8-15.6,36.1-4.75,14.15-8.3,27.05-.8,3.3-1.35,26.15l-.45,8.85a4.216,4.216,0,0,1-.45,2q-.45.8-1,.8a1.17,1.17,0,0,1-1-.4,4.05,4.05,0,0,1-.7-2.3L4,185.25l-.55-9.75q.05-5.3,2.9-18.95,2.5-12.2,4.85-20,3.5-11.7,8.4-25.05,4.1-11,5.2-13,1.55-2.8,12.75-16.05Q48.8,69.1,51.55,66.9q2.3-1.85,9.1-4.9,3.4-1.55,6.35-2.7L89.15,41.05a16.07,16.07,0,0,1,5.5-3.15q2.85-.85,3.75.4,1.8,2.6-.95,5.6" fill="#f29600"/>
    <path id="Caminho_66" data-name="Caminho 66" d="M73.55,91.75a16.691,16.691,0,0,0-3.4-1.05l-3.7-.55q-3.5,2.4-12.7,10.25-9.7,8.25-11.6,10.65-5.25,6.65-14.55,32.7-7.1,19.7-9.35,28.45l-.3,4.2q-3.8,3.45-7.65,7.65.55-20.2,1.2-22.65,2.15-8.75,9.2-28.75,9.4-26.55,15.05-33.7,2.4-3,13.7-12.5,10.95-9.3,12.8-10.1a19.353,19.353,0,0,1,7,.8q4.55,1.2,5.4,2.55Q75.2,80.75,81,99l2.75,8.2q1.05,2.75,14.65,14.6,1.75,1.55,4.5,10.95l1.2,4,2.35,9.05,3.2,13.15q1.05,4.05,1.9,4.6a43.462,43.462,0,0,1,7.6,7.15q.8.95,3.4,7.3l4.7,11.85-1.75,3.95-4.35-4.5a52.293,52.293,0,0,0-2.85-6.45,33.938,33.938,0,0,0-6.55-6.2,7.571,7.571,0,0,1-2.7-3.75,83.479,83.479,0,0,1-2.25-8.3l-2.05-8.45-2.3-8.75-1.25-4.2q-1.2-4.1-2.35-10.05l-.9-5.1L84,116.05a15.958,15.958,0,0,1-4.6-6.35L73.55,91.75" fill="#00666c"/>
    <path id="Caminho_67" data-name="Caminho 67" d="M354.95,132.9q1.7,4.35,4.25,21.05,2.45,16,2.45,21.15v1.1l-.15,21.85q-.65,6.15-5.2,6.05a3.018,3.018,0,0,1-2.85-1.85,14.168,14.168,0,0,1-.8-5.6,18.983,18.983,0,0,0-.5-4.5q-10.05-9.9-21.1-19.75-15-13.3-20.1-15.5-6.15-2.65-15.25-2.3-7.45.35-10.6,1.9-1.45.7-7.1,7.4l-4.35,4.75a5.1,5.1,0,0,1-2.8,1.6l-1.9-.25L266,168.75a93.306,93.306,0,0,0-11.1-4.25q-8.15-2.15-13.8.15a97.016,97.016,0,0,0-17.85,10,80.785,80.785,0,0,0-10.05,7.7q-.85.95-5.15,9.35l-8.6,16.95q-.65,1.2-2.9,1.3a2.845,2.845,0,0,1-2.5-1.35L171.4,170.5a2.531,2.531,0,0,1-.1-2.65,2.628,2.628,0,0,1,2.25-1.5l9.65-.25q2.1-6.15,3.6-7.3a8.633,8.633,0,0,1,3.25-1l4.65.1,8-5.3,12.15-8.8a96.291,96.291,0,0,0,17-16.45,133.67,133.67,0,0,0,4.05-13.25q2.95-10.9,5.55-22.5,2.4-10.75,4-21.55,1.45-9.85,1.3-12.6-.1-1.5-2.95-5.95A135.214,135.214,0,0,0,235.45,40a13.378,13.378,0,0,1-2.75-5.5,7.376,7.376,0,0,1,1-6.1,5.1,5.1,0,0,1,3.35-2.3,8.3,8.3,0,0,1,4.85.9,16.243,16.243,0,0,1,4.15,2.8l8.15,7.85L262,45.2a12.274,12.274,0,0,0,3.5.95l4.1.85q1.45.45,11.65,5.7l11.1,5.5a54.005,54.005,0,0,0,10,2.15l4,.55a6.036,6.036,0,0,1,2.9,1q3.5,3.3,14,21.45l14.6,25.75a134.564,134.564,0,0,0,11.1,16.05l6,7.75" fill="#0d131a"/>
    <path id="Caminho_68" data-name="Caminho 68" d="M343.15,123.2l4.7,6.35,3.85,5.85q1.65,4.15,4.4,19.65,2.75,15.35,2.75,20.05v10.95l-.15,11.1a7.129,7.129,0,0,1-.65,2.55,1.807,1.807,0,0,1-1.75,1q-.75-.05-1.1-2a16.534,16.534,0,0,1-.25-3l-.1-4.45-3.4-36.85v-.2q-4.95-18.3-20.65-45.85-14.25-24.95-22.75-33.4Q305.7,72.55,287,66.3q-17.3-5.85-18.4-5.85a11.816,11.816,0,0,0-6.3,1.35,12.129,12.129,0,0,0-4.9,4.4q-1.7,2.7-9.1,30.8-2.2,8.55-4.75,25.35-1.45,9.5-1.9,10.4-.8,1.5-12.5,9.9l-5.7,4.2a18.4,18.4,0,0,0-3.6,4.45q-1,1.55-2.85,5.05l-1.1,2.05a7.974,7.974,0,0,1-2.65.85q-4.7,1.15-7.6,2.15-3.8,1.3-9.95,12.3a196.7,196.7,0,0,0-8.6,17.8l-13.35-22.4,11.55-.9,1.15-3.25q1.3-3.35,2.2-4a7.528,7.528,0,0,1,4.2-.8l2.65.2,9.45-6.4,11.55-7.9q2.05-1.55,9.75-9,7.65-7.45,8.05-8.3,2.55-5.5,9.45-35.7,7.1-31.2,6.55-36.75-.2-1.95-5.6-9.5l-6.8-8.9a10.24,10.24,0,0,1-2-4.15,5.31,5.31,0,0,1,.2-4q.85-1.45,3.4-.45a14.635,14.635,0,0,1,4.6,3l8.1,8.25,7.45,7.55,4.25.7,5.85,1.25q2.05.7,21.3,9.95l8.7,2.45q6.65,1.7,7.2,2.2,4.75,4.55,20.4,31.25l15.8,27.3" fill="#f29600"/>
    <path id="Caminho_69" data-name="Caminho 69" d="M349.75,154.8l3.1,34.5q-10.4-9.8-19.95-18.1-15.45-13.4-21-15.8-6.75-2.9-16.3-2.25-7.6.5-11.4,2.4-1.65.8-7,6.7-4.95,5.4-6.85,5.75-1.15.25-4.5-1.1l-6.95-2.8q-10.5-3.7-18.25-.55a142.386,142.386,0,0,0-18.75,9.65q-8.55,5.15-10.7,7.2-1.3,1.3-8.15,14.15l-6.6,12.6-6.85-11q7.3-18.15,8.1-19.95,4.8-10.7,7.75-11.7a76.725,76.725,0,0,1,8.3-2.05l2.5-.65,1.5-1.1,1.3-2.35,2.3-5.3a14.535,14.535,0,0,1,3-4.7l2.55-1.6,3.6-2.25,8.95-6.6q3.65-2.85,4.25-4.1l.9-3.55,1.2-7.55,1.7-11.9a123.638,123.638,0,0,1,2.45-12.55l5.35-20.4q2.4-8.9,2.95-9.8a9.138,9.138,0,0,1,4.7-3.35,12.371,12.371,0,0,1,5.7-.95q2.5.4,18.2,5.8Q304,75.4,305.9,77.3q8.7,8.75,22.9,32.6,16.15,27.1,20.95,44.9" fill="#008086"/>
    <path id="Caminho_70" data-name="Caminho 70" d="M344.7,181.75l-1.35-14.95q-4.7-17.25-20.45-43.65-13.8-23.05-22-31.4-2.45-1.7-17.2-6.75-13.2-4.5-17.55-5.6a8.394,8.394,0,0,0-3.3.65,5.972,5.972,0,0,0-2.45,1.4q-.75,2-6.2,22.8l-1.6,6.25a162.886,162.886,0,0,0-3.25,18.15l-.8,5.8L247.1,143a14.2,14.2,0,0,1-1.15,3.9,15.472,15.472,0,0,1-4,4.45l-10.6,8L227.1,162l-1.65,1q-17.9,16.1-20.1,16.85-2.8,2.3-11.15,23.65v.05l-4.6-7.4q7.3-18.15,8.1-19.95,4.8-10.7,7.75-11.7a76.725,76.725,0,0,1,8.3-2.05l2.5-.65,1.5-1.1,1.3-2.35,2.3-5.3a14.535,14.535,0,0,1,3-4.7l2.55-1.6,3.6-2.25,8.95-6.6q3.65-2.85,4.25-4.1l.9-3.55,1.2-7.55,1.7-11.9a123.638,123.638,0,0,1,2.45-12.55l5.35-20.4q2.4-8.9,2.95-9.8a9.138,9.138,0,0,1,4.7-3.35,12.371,12.371,0,0,1,5.7-.95q2.5.4,18.2,5.8Q304,75.4,305.9,77.3q8.7,8.75,22.9,32.6,16.15,27.1,20.95,44.9l3.1,34.5-8.15-7.55" fill="#00666c"/>
    <path id="Caminho_71" data-name="Caminho 71" d="M39.9,192l-1-.2-1.75-1.25a6.377,6.377,0,0,1-1.5-4.95q.15-2,3.65-6.55a34.2,34.2,0,0,1,4.35-5l.4-.35-2-5.45-.3-.6a6.215,6.215,0,0,1-.25-5.7,7.281,7.281,0,0,1,4.1-4.15,14.844,14.844,0,0,1,5.7-.7l3.85.45q1.7.7,5.55,6.15l.85.35,1.1.3,3.7-1.75a18.309,18.309,0,0,1,3.75-2.35,5.739,5.739,0,0,1,3.6-.05q2.75.7,4.7,5.25,1.7,4.05,1.2,6.4a16.709,16.709,0,0,1-1.35,3.45L76,179.7l-.55,1,.15,1.15q10.05,9.05,13.1,8.25l3.9-.95a52.076,52.076,0,0,0,7.5-2.5,82.6,82.6,0,0,0,10-4.9,24.425,24.425,0,0,1,2-4.35,13.785,13.785,0,0,1,6-4.6q3.35-1.45,10.9-1.6,4.45-.1,7.9.15l3.7.35-12.8,27.5-1.9-.35-8.65-2.8-5.7,2.85-8,3.85-3.4,1.8-2.9,1.75a21.977,21.977,0,0,1-7.5,2.75q-6.3.45-15.25-4.9a84.191,84.191,0,0,1-11.4-8.4,7.438,7.438,0,0,1-3.35,1.1,8.473,8.473,0,0,1-4.6-1.35,11.311,11.311,0,0,1-3.2-3.1l-2.25-3.35-1.2,2.45-.85.9L39.9,192" fill="#0d131a"/>
    <path id="Caminho_72" data-name="Caminho 72" d="M40,189.4a1.8,1.8,0,0,1-1.15-.45,3.266,3.266,0,0,1-1-3,6.719,6.719,0,0,1,1.1-3.1l2.55-3.25,3.2-3.05,2-1.8q.55-.85-2.3-7.5a13.325,13.325,0,0,1-1.3-4q-.05-2.35,3.25-3.7l4.6-.25,3.35.55,2.1,2.4,2.2,2.95a4.541,4.541,0,0,0,3.55,1.6l4.75-2.3a7.666,7.666,0,0,1,2.95-1.55l2.8.25q1.55.4,3,3.9,1.35,3.3,1.05,4.75a18.8,18.8,0,0,1-1.65,4l-1.9,3.75a4.554,4.554,0,0,0,.2,3.7l6.35,5.05q7.05,4.9,10.6,3.95l4.65-1.6,7-2.7,10.3-4.35a9.2,9.2,0,0,1,1.35-3.1,14.641,14.641,0,0,1,6.8-5.45q3.05-1.3,10-1.35l6.3.2-10.4,22.4-7.35-3.85q-10.3,5.35-16.4,7.85-2.2.95-7.55,3.7A14.879,14.879,0,0,1,89.85,206q-5.7.45-14.35-4.8a83.154,83.154,0,0,1-10.8-8q-.2-.15.5-1.4l.75-1.25L63.3,192.4a4.238,4.238,0,0,1-2,1.2,6.828,6.828,0,0,1-5.6-.85,12.472,12.472,0,0,1-4.35-4.3l-1.2-2.5-3.55,3.8L40,189.4" fill="#f29600"/>
    <path id="Caminho_73" data-name="Caminho 73" d="M72.55,172.75,68.5,175.2a14.912,14.912,0,0,1-4.7,1.7,2.062,2.062,0,0,1-1.35-.45q-.95-1-.25-5.1a16.691,16.691,0,0,1,1.55-5.3,6.966,6.966,0,0,1,3.25-2.7l3.85-.15a4.4,4.4,0,0,1,2.55,2.4,5.367,5.367,0,0,1,.4,3.25l-.1.7a6.024,6.024,0,0,1-1.15,3.2" fill="#0d131a"/>
    <path id="Caminho_74" data-name="Caminho 74" d="M70.7,163.6l-3.55.2a6.486,6.486,0,0,0-3,2.5,15.536,15.536,0,0,0-1.5,5.05q-.65,3.95.15,4.75a1.284,1.284,0,0,0,.95.35,15.156,15.156,0,0,0,4.55-1.65,15.531,15.531,0,0,0,3.9-2.35,5.43,5.43,0,0,0,1.05-2.95l.1-.7a5.5,5.5,0,0,0-.35-3.05,3.951,3.951,0,0,0-2.3-2.15m-7.35,2.2a7.159,7.159,0,0,1,3.5-2.85l4.15-.2a5.05,5.05,0,0,1,2.55,2.15,5.774,5.774,0,0,1,.8,3l-.2,1.75a6.218,6.218,0,0,1-1.25,3.4,14.8,14.8,0,0,1-4.2,2.55,15.687,15.687,0,0,1-4.9,1.75,2.078,2.078,0,0,1-1.65-.6q-1.15-1.15-.4-5.5a17.042,17.042,0,0,1,1.6-5.45" fill="#0d131a"/>
    <path id="Caminho_75" data-name="Caminho 75" d="M70,170.15a53.215,53.215,0,0,1-6.7,5.3q-.45-.45-.05-3.85a15.447,15.447,0,0,1,1.2-4.85,5.482,5.482,0,0,1,2.4-2.2,3.612,3.612,0,0,1,2.95-.3,3.145,3.145,0,0,1,2,2,6.526,6.526,0,0,1-.65,2.35L70,170.15" fill="#fff"/>
    <path id="Caminho_76" data-name="Caminho 76" d="M71.2,171.6a15.991,15.991,0,0,1-3.95,2.45q-3.55,1.8-3.95,1.4a53.215,53.215,0,0,0,6.7-5.3l1.15-1.55a6.526,6.526,0,0,0,.65-2.35,4.643,4.643,0,0,1,.25,2.05l-.25,1.9-.6,1.4" fill="#dbdcdc"/>
    <path id="Caminho_77" data-name="Caminho 77" d="M39.25,185.4a6.093,6.093,0,0,1,2.85-1.2,4.069,4.069,0,0,1,3.4.8,4.224,4.224,0,0,1,1.4,2l2.6,4.1a4.934,4.934,0,0,0,2,1.1l1.55.45-.7,1.45q-1.1,2.25-6.4,1.95l-4.05-.55a6.126,6.126,0,0,1-3.35-2.5,6.4,6.4,0,0,1-1.05-2.85,4.747,4.747,0,0,1,.35-2.7l.15-.25a4.939,4.939,0,0,1,1.25-1.8" fill="#0d131a"/>
    <path id="Caminho_78" data-name="Caminho 78" d="M39.4,185.6a5.152,5.152,0,0,0-1.2,1.65l-.15.3a5,5,0,0,0-.35,2.6,6.347,6.347,0,0,0,1,2.75,6.036,6.036,0,0,0,3.25,2.35l4,.55q5.2.3,6.15-1.8l.65-1.2-1.3-.4a5.4,5.4,0,0,1-2.15-1.15,32.438,32.438,0,0,1-2.55-4l-.05-.05-.15-.25a4.079,4.079,0,0,0-1.35-1.9,3.7,3.7,0,0,0-3.1-.65,5.638,5.638,0,0,0-2.7,1.2m-1.05,7.55a6.471,6.471,0,0,1-1.15-3.7,4.639,4.639,0,0,1,.45-2.1l.15-.25a5.608,5.608,0,0,1,1.3-1.85,5.9,5.9,0,0,1,2.95-1.3,4.043,4.043,0,0,1,3.3.7,4.7,4.7,0,0,1,1.6,2.05l2.7,4.25a3.892,3.892,0,0,0,1.95,1l1.5.5.15.1.05.1-.75,1.55q-1.15,2.35-6.6,2.05l-4.1-.55a6.607,6.607,0,0,1-3.5-2.55" fill="#0d131a"/>
    <path id="Caminho_79" data-name="Caminho 79" d="M39.15,188.05l.8-1.25a4.266,4.266,0,0,1,2.25-.95,2.752,2.752,0,0,1,3.1,1.9l1.1,1.85,1.7,2.5a5.614,5.614,0,0,0,2.6,1.45q-9,1.3-11.55-5.5" fill="#fff"/>
    <path id="Caminho_80" data-name="Caminho 80" d="M39.6,192.3a4.8,4.8,0,0,1-.8-2.15,3.577,3.577,0,0,1,.25-1.85l.1-.25q2.55,6.8,11.55,5.5a1.559,1.559,0,0,1-.9.65l-4.05.45-3.5-.4a4.848,4.848,0,0,1-2.65-1.95" fill="#dbdcdc"/>
    <path id="Caminho_81" data-name="Caminho 81" d="M50.75,163.1a5.042,5.042,0,0,1,1.3,4.05,3.824,3.824,0,0,1-1.25,2.9l-2.15,2-2.15,2.4a6.754,6.754,0,0,0-.7,3.15l-.35,1.3L44,178.85a6.338,6.338,0,0,1-2.5-1.55,8.481,8.481,0,0,1-2.4-6.35q0-3.8,3.25-8.2A3.783,3.783,0,0,1,44,161.7a7.757,7.757,0,0,1,2.15-.45,5.486,5.486,0,0,1,4.6,1.85" fill="#0d131a"/>
    <path id="Caminho_82" data-name="Caminho 82" d="M41.95,162.5a3.889,3.889,0,0,1,1.9-1.2l2.25-.5a5.934,5.934,0,0,1,6.45,6.4,4.868,4.868,0,0,1-1.45,3.25l-2.1,1.9a17.191,17.191,0,0,0-2.1,2.35,6.224,6.224,0,0,0-.65,3L45.9,179l-.15.25L44,179.3h-.1a5.627,5.627,0,0,1-2.7-1.7,8.789,8.789,0,0,1-2.55-6.65q0-3.85,3.3-8.45m6.4,9.25,2.15-2.05a3.4,3.4,0,0,0,1.1-2.6l.05-.4a5.04,5.04,0,0,0-1.25-3.3,5.246,5.246,0,0,0-4.25-1.7l-1.95.45-1.5.9q-3.15,4.3-3.15,7.9a8.078,8.078,0,0,0,2.15,5.9,5.386,5.386,0,0,0,2.4,1.55l1,.05.25-.9a6.315,6.315,0,0,1,.75-3.35,18.264,18.264,0,0,1,2.25-2.45" fill="#0d131a"/>
    <path id="Caminho_83" data-name="Caminho 83" d="M48.75,168.3l-3.05,2.75a6.321,6.321,0,0,0-.95,6.05v.25a5.185,5.185,0,0,1-1.95-1.25,7.229,7.229,0,0,1-1.95-5.35,11.083,11.083,0,0,1,1.05-4.4,15.173,15.173,0,0,1,1.8-3.1q.65-.8,2.8-.8a4.542,4.542,0,0,1,3.55,1.4l.5.65a7.249,7.249,0,0,1-1.8,3.8" fill="#fff"/>
    <path id="Caminho_84" data-name="Caminho 84" d="M50.3,168.8a21.874,21.874,0,0,0-4.65,4.25,9.666,9.666,0,0,0-.9,4.05,6.321,6.321,0,0,1,.95-6.05l3.05-2.75a7.249,7.249,0,0,0,1.8-3.8,3.983,3.983,0,0,1,.45,2.7,2.561,2.561,0,0,1-.7,1.6" fill="#dbdcdc"/>
    <path id="Caminho_85" data-name="Caminho 85" d="M50.15,180.2a8.829,8.829,0,0,1,2.55-6.15,8.3,8.3,0,0,1,5.9-2.85q-3.75,4.9-3,8.25.5,2.25,4.05,3.8a15.7,15.7,0,0,0,5.8,1.4l-2.2,2.5a4.575,4.575,0,0,1-3.05,1.1,11.091,11.091,0,0,1-6.75-2.3q-3.3-2.5-3.3-5.75" fill="#d18200"/>
    <path id="Caminho_86" data-name="Caminho 86" d="M57.5,172.75q2.4-3.8,2.8-3.4l-2.05,3.55q-2.05,3.95-1.55,6.3.45,1.8,3.6,3.35A12.469,12.469,0,0,0,65.75,184a9.622,9.622,0,0,0,3.75-.85l1.65-.75a7.481,7.481,0,0,1-5.5,2.25,14.786,14.786,0,0,1-5.9-1.35q-3.65-1.55-4.15-3.85-.6-2.65,1.9-6.7" fill="#0d131a"/>
    <path id="Caminho_87" data-name="Caminho 87" d="M113.2,225.25l2.75-1.3,32.4,74.1-4.05.5a36.852,36.852,0,0,0-6.25,1.25,21.474,21.474,0,0,0-4.3,2.75l-3.25,2.15a16.332,16.332,0,0,1,2.35,5.9q.8,3.55.4,4.85a7.051,7.051,0,0,1-4.6,4.7,52.248,52.248,0,0,0-9,2.6,40.126,40.126,0,0,0-6.45,3.7l-4.15,2.95L107.4,331a7.567,7.567,0,0,1-3.05,1.15,12.447,12.447,0,0,1-5-.85l-3.7.85-3.95,1a47.653,47.653,0,0,0-4.6,1.8l-1.95.95a3.973,3.973,0,0,1-2.2.55q-1.05-.25-.8-2.15a16.132,16.132,0,0,1,1.35-4.25l1.05-2.1-9.1.45a17.316,17.316,0,0,0-3.25.9l-2.2.95-1.85.15a.9.9,0,0,1-.35-1.05,12.755,12.755,0,0,1,1-3.45,19.465,19.465,0,0,1,4.9-6.85l-3.9-.1a11.828,11.828,0,0,0-4.5.8q-2.55,1.2-1.5-2.2.85-2.75,5.15-6.1a31.281,31.281,0,0,1,5.2-3.15,18.344,18.344,0,0,1,3.95-1.5l.5-.1,1.15-.1,6.2-3.9A33.4,33.4,0,0,0,91,298.35l2.3-2.8.5-2.3-2.95-2.2a20.237,20.237,0,0,1-3.7-3.65q-5.2-7-6-12.3-1.45-9.95,6.75-23.95,5.5-9.45,17.35-19.4,9.5-7.2,7.95-6.5" fill="#0d131a"/>
    <path id="Caminho_88" data-name="Caminho 88" d="M106.3,233.4a46.1,46.1,0,0,1,5.8-4.15l2.3-1.25,29.5,67.55a37.691,37.691,0,0,0-6.75,1.35,12.891,12.891,0,0,0-3.95,2.55,22.466,22.466,0,0,1-4.15,3q-.85.45-2.65,1.65l-1.6,1.1,1.4.2a5.833,5.833,0,0,1,1.95.5,5.311,5.311,0,0,1,1.25,2.6l.9,4.15q-1,1.6-4.5,3.05a36.433,36.433,0,0,1-5.3,1.65,42.387,42.387,0,0,0-5.6,1.75,25.363,25.363,0,0,0-5.45,2.6l-3.75,2.35a8.7,8.7,0,0,1-3.2,1.15l-2.5,3.75a71.547,71.547,0,0,1-10.05-4.35,51.777,51.777,0,0,1-9.25-5.85q-3.65-3.05-4.2-5.75l.2-2.1L88,303.85a30.619,30.619,0,0,0,5.4-4.8,14.06,14.06,0,0,0,2.4-3.35l.2-1.4,1.95.6,5.3.4-2.75-.6-2.15-.8a10.158,10.158,0,0,1-2.05-1l-1.15-.75q-1.7-1.1-4.9-5.4A24.266,24.266,0,0,1,85.4,275q-1.45-10.35,5.15-22.4a64.394,64.394,0,0,1,15.75-19.2" fill="#f29600"/>
    <path id="Caminho_89" data-name="Caminho 89" d="M125.8,315.7q3.5-1.45,4.5-3.05a8.737,8.737,0,0,1,.1,2.55,4.889,4.889,0,0,1-2.3,2.5l-2.8,1.05-6,1.85a25.382,25.382,0,0,0-5.25,2.75l-5.15,3.2-2.05,1.75a6.3,6.3,0,0,1-3.1,1.4,10.078,10.078,0,0,1-3.75-.75l2.5-3.75a8.7,8.7,0,0,0,3.2-1.15l3.75-2.35a25.363,25.363,0,0,1,5.45-2.6,42.387,42.387,0,0,1,5.6-1.75,36.433,36.433,0,0,0,5.3-1.65" fill="#d18200"/>
    <path id="Caminho_90" data-name="Caminho 90" d="M98.85,296.85q-1-.65-.85-.85l1,.3,2.1.7,2.75.25,1.55.2-1.5.4-2.75-.1a6.6,6.6,0,0,1-2.3-.9" fill="#0d131a"/>
    <path id="Caminho_91" data-name="Caminho 91" d="M114.25,290.7a32.757,32.757,0,0,1-5.75-18.85,33.178,33.178,0,0,1,3.65-15.3,32.127,32.127,0,0,1,9.7-11.4l22.05,50.4a37.691,37.691,0,0,0-6.75,1.35,12.891,12.891,0,0,0-3.95,2.55,22.466,22.466,0,0,1-4.15,3l-.05.05a30.956,30.956,0,0,1-14.75-11.8" fill="#d18200"/>
    <path id="Caminho_92" data-name="Caminho 92" d="M79.55,308.65q.7-.2,1.2.6a6.1,6.1,0,0,1,.75,2.55,18.424,18.424,0,0,1-.5,5.8H70.25a15.8,15.8,0,0,0-4.05.9l-2,.8a2.528,2.528,0,0,1,.35-1.75,14.46,14.46,0,0,1,4.6-4.9,19.791,19.791,0,0,1,6.3-2.95l4.1-1.05" fill="#fff"/>
    <path id="Caminho_93" data-name="Caminho 93" d="M74.75,315.5q5.55-.4,6-1.55h.05l-.35,2.95-10.25.05a13.121,13.121,0,0,0-3.6.7,20.066,20.066,0,0,1,8.15-2.15" fill="#dbdcdc"/>
    <path id="Caminho_94" data-name="Caminho 94" d="M78.75,308.15l.6-.15,1.35.2q1.2.8,1.5,3.55V314l-1.4-.05V311.9a3.988,3.988,0,0,0-.85-2.55q-.9-.6-4.45.75a24.287,24.287,0,0,0-5.95,3.1q-3.75,2.8-4.55,5l1.6-.55,1,1.15-3.15,1.15H63.9a.6.6,0,0,1-.4-.45,3.688,3.688,0,0,1,.4-2.15q1.1-2.45,4.85-5.25,3.3-2.45,10-3.95" fill="#0d131a"/>
    <path id="Caminho_95" data-name="Caminho 95" d="M70.25,318.3l-2.65.5-1-1.15a13.121,13.121,0,0,1,3.6-.7l10.25-.05.35-2.95,1.4.05-.5,3.75a.668.668,0,0,1-.7.55H70.25" fill="#0d131a"/>
    <path id="Caminho_96" data-name="Caminho 96" d="M79,324.2a23.05,23.05,0,0,0-8.85,4.2l.85.3-2.3,1a5.788,5.788,0,0,1,.5-2.55,14.843,14.843,0,0,1,4.35-6.05,51.535,51.535,0,0,1,6.35-4.5l4.3-2.5q.75-.45,2.55,1.25a8.672,8.672,0,0,1,2.65,4.05l.25.95L87.6,322a7.6,7.6,0,0,1-2.45,1L79,324.2" fill="#fff"/>
    <path id="Caminho_97" data-name="Caminho 97" d="M75.95,327.05A29.3,29.3,0,0,0,71,328.7l-.85-.3A23.05,23.05,0,0,1,79,324.2l6.15-1.2a7.6,7.6,0,0,0,2.45-1l2.05-1.65a15.287,15.287,0,0,1,.25,5.6l-13.95,1.1" fill="#dbdcdc"/>
    <path id="Caminho_98" data-name="Caminho 98" d="M69.6,328.35l.55-.05a30.54,30.54,0,0,1,5.7-1.95l13.4-1.05a14.491,14.491,0,0,0-.5-5.7,8.294,8.294,0,0,0-2.2-3.55q-1.4-1.35-2.05-1.35l-.25.15A63.441,63.441,0,0,0,74,321.6a13.48,13.48,0,0,0-4.3,6.2l-.1.55m2.15.8a23.6,23.6,0,0,0-2.75,1.2l-.65-.05-.35-.55a7.854,7.854,0,0,1,.55-2.85,15.281,15.281,0,0,1,4.55-6.3,59.882,59.882,0,0,1,10.45-6.95l.3-.15a1.789,1.789,0,0,1,1.45,0,7.868,7.868,0,0,1,2.65,2.15,11.03,11.03,0,0,1,2.35,3.8,11.514,11.514,0,0,1,.75,4.85l-.45,1.75a.727.727,0,0,1-.65.6L76.1,327.7a20.042,20.042,0,0,0-4.35,1.45" fill="#0d131a"/>
    <path id="Caminho_99" data-name="Caminho 99" d="M93.95,320.7q.6-.5,3.25.8a9.77,9.77,0,0,1,3.9,2.95l.2.35-.85-.45a2.787,2.787,0,0,1-1.8,2.65l-5.95,2.5q-5.45,2.45-7.35,4.3l.45.4L84,335a2.851,2.851,0,0,1-.25-1.85,8.315,8.315,0,0,1,2.7-4.95q5.85-6.15,7.5-7.5" fill="#fff"/>
    <path id="Caminho_100" data-name="Caminho 100" d="M102.3,328.55l-9.8,3.15q-2.45.8-6.7,2.5l-.45-.4q1.9-1.85,7.35-4.3l5.95-2.5a2.787,2.787,0,0,0,1.8-2.65l.85.45a5.465,5.465,0,0,1,1,3.75" fill="#dbdcdc"/>
    <path id="Caminho_101" data-name="Caminho 101" d="M100.5,324.85a8.741,8.741,0,0,0-3.3-2.6,6.261,6.261,0,0,0-2.9-1l-7.4,7.45a7.741,7.741,0,0,0-2.5,4.5q-.1.85.85.5l7-2.65,5.7-1.75,3.45-1.3q.5-1.2-.9-3.15m-7-4.7a2.006,2.006,0,0,1,1.3-.25,10.384,10.384,0,0,1,3.6,1.4,9.848,9.848,0,0,1,3.25,2.75,8.036,8.036,0,0,1,1.5,3.7,2.191,2.191,0,0,1-.3,1.7q-.15.25-1.1.4l-3.4.8-5.65,1.7q-2.85.95-5.9,2.2l-2.5,1.05a.659.659,0,0,1-.9-.25,4.037,4.037,0,0,1-.35-2.2q.15-2.65,2.9-5.45,6.3-6.5,7.55-7.55" fill="#0d131a"/>
    <path id="Caminho_102" data-name="Caminho 102" d="M169.95,90.45a2.933,2.933,0,0,1,1.7,1.1,2.9,2.9,0,0,1,.6,1.95l-.6,16.15q-.45,17.05.1,22.3a90.266,90.266,0,0,0,4,16.6,104.653,104.653,0,0,0,7.65,18.4q2.1,3.75,9.05,14.5l11.95,19a132.314,132.314,0,0,1,9.2,17.6,226.044,226.044,0,0,1,8.85,26.1q4.75,18.5,2.85,32.65-2.1,15.4-12.8,24.1-10.5,8.6-27.85,9.4-20.8.95-37.8-6.25-22.35-9.4-35.5-31.9-12.1-20.75-6.55-46.6,4.05-18.85,17.8-40.9,12.2-19.65,14.8-54.1.8-11.3-2.55-29.15L131.3,85.6q-.1-.65.8-1.35l1.55-1.1a2.893,2.893,0,0,1,2.85-.75l33.45,8.05" fill="#0d131a"/>
    <path id="Caminho_103" data-name="Caminho 103" d="M117.35,276q17.6,14.7,37.35,18.45,19.8,3.75,34.35-5.05,2.9,8.3,7.2,11.9a21.083,21.083,0,0,0,5.2,3.2,49.792,49.792,0,0,1-16.8,3.5A84.557,84.557,0,0,1,151,303.1q-20.7-7.8-33.65-27.1" fill="#ddd583"/>
    <path id="Caminho_104" data-name="Caminho 104" d="M109.4,219.55q4.5-12.8,11.45-20.45,9.65-10.6,22.7-9.65,15.65,1.2,27.8,24.1A104.866,104.866,0,0,1,183.6,256.7q1.3,21,5.45,32.7-14.55,8.8-34.35,5.05Q134.95,290.7,117.35,276l-2.8-4.45q-13.25-22.65-5.15-52" fill="#fff697"/>
    <path id="Caminho_105" data-name="Caminho 105" d="M185.9,193.25a17.389,17.389,0,0,1,3.65-10.7q13.3,20.6,18.1,29.95h-.2a22.037,22.037,0,0,1-15.25-5.65,17.539,17.539,0,0,1-6.3-13.6" fill="#d18200"/>
    <path id="Caminho_106" data-name="Caminho 106" d="M169.2,93.45l-.05,2.35-.2,19.3q0,9.95.35,15.15l.15,1.7a100.92,100.92,0,0,0,3.85,17.65,94.525,94.525,0,0,0,7.45,18.8l15,23.85q11.6,18.3,15,26.9a229.4,229.4,0,0,1,8.95,26.45q4.4,17.45,2.6,30.8a36.861,36.861,0,0,1-6.2,16.6,32.077,32.077,0,0,1-12.35,10.45,21.44,21.44,0,0,1-6.35-3.55q-4.8-4.1-7.4-14.15-2.4-9.55-3.5-27.35a126.555,126.555,0,0,0-3.7-23.1,104.64,104.64,0,0,0-8.05-22.35,65.994,65.994,0,0,0-12.2-17.1q-8.9-8.75-18.5-9.45-16.75-1.25-29.1,17.8a149.284,149.284,0,0,1,9.5-17.8q12.7-20.3,15.25-54.45a104.005,104.005,0,0,0-.9-18.15A115.088,115.088,0,0,0,134.95,94l.85-8.4v-.2l33.4,8.05" fill="#f29600"/>
    <path id="Caminho_107" data-name="Caminho 107" d="M169.2,93.45l-.05,2.35-.2,19.3q0,9.95.35,15.15l.15,1.7,1,6.4q-9.1,2.45-17.75-3.6-7.2-5.05-13.35-15.5A120.881,120.881,0,0,0,134.95,94l.85-8.4v-.2l33.4,8.05" fill="#d18200"/>
    <path id="Caminho_108" data-name="Caminho 108" d="M224.6,233.85a89.277,89.277,0,0,1,12.85,19.1,63.243,63.243,0,0,1,6.8,28.75,45.745,45.745,0,0,1-3.65,16.95,55.108,55.108,0,0,1-3.65,7.75,29.451,29.451,0,0,0-.4,4.85q6.65,5.1,8.75,7.8l2.3,2.8,1.7,2a6.991,6.991,0,0,1,3,2.9,8.5,8.5,0,0,1,.55,3.7L256,336.2a14.589,14.589,0,0,1,1.4,7.45,7.748,7.748,0,0,1-.9,3.1q-.9,2-1.9,2.1l-1.1-.8-.65-.85a17.641,17.641,0,0,0-3.5-3.1l-3.2-1.2-3.85-1.35-3.7.2v2.3a15.043,15.043,0,0,1-.75,4.5,13.786,13.786,0,0,1-1.9,3.7q-1.15,1.6-1.85,1.4-.35-.05-1.55-1.95a13.765,13.765,0,0,0-2.1-2.6l-4.1-2.7-4.05-2.25-2.15-.75-3.1.05a29.322,29.322,0,0,1-3.25,7.4q-1.3,2.5-1.9,2.45-.35-.05-1.25-1.25l-.8-1.15a24.2,24.2,0,0,0-2.65-3.75l-3-2.65-3.5-3.05-2.3-.8-1.6-1.2a4.09,4.09,0,0,1-1.2-1.8,9.059,9.059,0,0,1-.35-2.1q-.4-8.5,5.9-18.8l-.3-3.9a40.723,40.723,0,0,1-13.3-11.2q-5.3-6.5-6.7-16.7l-.4-8.95q.3-8.15,5.9-16.2a41.193,41.193,0,0,1,7.4-8.25L214.9,225.4l-.8-4.95,2.4,4.85,8.1,8.55" fill="#0d131a"/>
    <path id="Caminho_109" data-name="Caminho 109" d="M230.85,146.85l.2-1.1a7.737,7.737,0,0,1,2.6-5.25l.3-.25a8.731,8.731,0,0,1,3.6-2.1,6.289,6.289,0,0,1,5.4.4,11.416,11.416,0,0,1,4.65,5.75q1.85,4.45,0,7.25l-1.4,2.65a11.333,11.333,0,0,0-.95,2.35,7.119,7.119,0,0,0,1.3,2.05l1.8,2.1,4.55-.85a4.1,4.1,0,0,1,4.05,1.7q.65,1,1.1,6.35.45,5.4-.15,6.6a4.318,4.318,0,0,1-1.35,1.5l-2.35,1.55-2.05.8a3.706,3.706,0,0,0-1.6.8,50.1,50.1,0,0,0-4.85,7.15,5.219,5.219,0,0,1-2.8,2.1l-3.1.7q-3.8,15.3-6.8,21.8-2.35,5.15-5.5,7.2a13.117,13.117,0,0,1-6.9,1.9,11.38,11.38,0,0,1-5.75-1.05,71.317,71.317,0,0,1-6.05-6.05l-6.35-6.55-3.45-2.5-3.6-2.35a32.986,32.986,0,0,0-4.9-2.7l-2.45-1-1.9-.15-2.15.4-1.15.35,2.2-1.55q-3-.4-3.05-.9-.05-.3.75-.4h.85l-14.9-23q-1.7.8-1.95,0a1.052,1.052,0,0,1,.05-.85l.65-.7q.55-.45,4.45-2.6a30.087,30.087,0,0,1,8.15-2.85q5-1,7.65-.05,4.8,1.75,6.75,4.95,1.85,3.15,1.9,9.4l2.55,1.4a11.239,11.239,0,0,1,2.55,1.9l.85.95,4.35,4.9a34.022,34.022,0,0,0,4.65,4.55,8.926,8.926,0,0,0,5,1.6l3.9-.3.85-5.65a24.555,24.555,0,0,0,.1-6.25l-2.9-2.45a10.31,10.31,0,0,1-3-1.45q-1.5-1.5-1.35-4.85l.05-2.4-.85-.75a25.3,25.3,0,0,1-4.7-4.7,7.629,7.629,0,0,1-1.05-6.25q.75-3.25,2.6-4.05a4.984,4.984,0,0,1,1.4-.5l4.9-2.45a2.764,2.764,0,0,1,2.4.2l1.55,1.4a8,8,0,0,0,1.65,1.45l3.45.45,3.15-5.1a32.409,32.409,0,0,0,2.4-4.65" fill="#0d131a"/>
    <path id="Caminho_110" data-name="Caminho 110" d="M233.6,147.4l.4-2.8a3.839,3.839,0,0,1,.95-2.25l2.6-1.95q2.35-.9,5.55.85l1.8,3.35q1.55,3.7.4,5.45a15.776,15.776,0,0,0-1.6,3.65,8.829,8.829,0,0,0-.75,3.4,7.505,7.505,0,0,0,2.65,4l2.3,1.75,2.75-.8q2.95-.5,4,1.05,1.1,1.6,1.2,5.65.1,3.55-.4,4.5l-2.85,2.05a19.607,19.607,0,0,0-3.65,2.55l-3.2,3.8a28.008,28.008,0,0,0-2.45,3.3,5.375,5.375,0,0,1-3.4,2.05l-2.45.4-.75,4.7a67.661,67.661,0,0,1-3.25,11.3,52.032,52.032,0,0,1-3.9,8.5,12.845,12.845,0,0,1-3.7,3.45,11.35,11.35,0,0,1-5.4,1.65,7.875,7.875,0,0,1-4.4-.55,19.4,19.4,0,0,1-3.55-3.75,30.033,30.033,0,0,0-4.45-4.7l-5.1-4.15q-3.65-3.05-5.95-4.6-3.05-2.1-11.4-3.45l-2.35-.3h-.9L168.2,172.85l6.95-3.1q7.6-2.85,10.75-1.75a15.936,15.936,0,0,1,5.4,2.95,8.337,8.337,0,0,1,2.3,3.85,17.845,17.845,0,0,1,.6,6.6l2.1,1.2a17.333,17.333,0,0,1,3.6,2.8l4.4,4.75a46.629,46.629,0,0,0,5.3,4.8,14.423,14.423,0,0,0,9.85,2.65,4.571,4.571,0,0,1-2.15,2.5l-2.5,1.75-2.05,1.2a2.384,2.384,0,0,0-.85,1.85,11.333,11.333,0,0,0,1.1,4.15q1.15,2.75,1.55,2.6L214,209.9a10.891,10.891,0,0,1-.75-4.7,1.347,1.347,0,0,1,.65-1q.4-.25,1.95-1.15l2.2-1.25a11.349,11.349,0,0,0,3.35-3.6l.4-.9.7-2.6,1.25-5.75a18.274,18.274,0,0,0,.15-5.2l-.45-1.95a21.776,21.776,0,0,0-4.3-3.6l-1.65-.85a4.57,4.57,0,0,1-.85-3.15l.05-2.6-.2-1.1-2.8-2.1a16.03,16.03,0,0,1-3.75-3.2q-2.2-3.05-.95-5.5l1.65-1.85,6.5-2.15,1.4,1.25a6.781,6.781,0,0,0,2.4,1.85l3.35.55,2.5-.25q.65-.35,3.6-5.4,3-5.05,3.2-6.3" fill="#f29600"/>
    <path id="Caminho_111" data-name="Caminho 111" d="M223.4,164.75a2.82,2.82,0,0,1-2.15,2.6,2.891,2.891,0,0,1-2.9-.4,14.756,14.756,0,0,0-3.65-2.45l-1.6-.25-1.2-.15q-1.75-.3-2.45-2.85a7.765,7.765,0,0,1-.1-3.5,6.817,6.817,0,0,1,2.1-3.55,5.8,5.8,0,0,1,4.6-1.45,4.393,4.393,0,0,1,3.3,1.45l.3.3q3.15,3.15,3.55,5.6a16.349,16.349,0,0,1,.2,4.65" fill="#0d131a"/>
    <path id="Caminho_112" data-name="Caminho 112" d="M223,163.3l-.25-3.1q-.4-2.2-3.4-5.35l-.35-.35a4.35,4.35,0,0,0-3-1.25,5.241,5.241,0,0,0-4.25,1.3,6.139,6.139,0,0,0-2.1,4.75l.25,1.8q.65,2.3,2.05,2.55l1.2.15,1.75.25a14.165,14.165,0,0,1,3.3,2.2,3.434,3.434,0,0,0,2.7.55,2.1,2.1,0,0,0,2-1.85l.1-1.65m.65-3.25a10.941,10.941,0,0,1-.35,5.45q-.95,2.5-1.8,2.95t-2.3-.85a17.843,17.843,0,0,0-4.7-2.7l-2.7-.35q-2-.3-2.8-3.2a7.726,7.726,0,0,1-.1-3.7,6.975,6.975,0,0,1,2.25-3.75,6.191,6.191,0,0,1,4.95-1.6l2.2.6,1.4,1,.3.3q3.2,3.2,3.65,5.85" fill="#0d131a"/>
    <path id="Caminho_113" data-name="Caminho 113" d="M216.1,154.05a3.447,3.447,0,0,1,2.1.85l1.7,1.9a7.655,7.655,0,0,1,1.75,3.25,12.99,12.99,0,0,1-.05,5.5l-.75,1.45-.35-.35q-.8-2.25-4.1-4.65l-1.4-.35a5.4,5.4,0,0,1-2.1-.75l-2.15-2.25a4.954,4.954,0,0,1,1.75-3.5,4.367,4.367,0,0,1,3.6-1.1" fill="#fff"/>
    <path id="Caminho_114" data-name="Caminho 114" d="M212.25,162.4q-.6-.1-1.1-1.2a5.484,5.484,0,0,1-.4-2.55l2.15,2.25a5.4,5.4,0,0,0,2.1.75l1.4.35q3.3,2.4,4.1,4.65a19.348,19.348,0,0,0-5.25-3.8l-1.45-.3-1.55-.15" fill="#dbdcdc"/>
    <path id="Caminho_115" data-name="Caminho 115" d="M241.55,138.6a5.721,5.721,0,0,1,3.3,3.9,8.495,8.495,0,0,1,.15,3.8,5.38,5.38,0,0,1-.85,2.55q-6.85,6.6-9,7.1a1.465,1.465,0,0,1-1.45-.4q-1.1-1.35-1.55-5.7-.5-4.6.55-6.75,3.05-7.05,8.85-4.5" fill="#0d131a"/>
    <path id="Caminho_116" data-name="Caminho 116" d="M241.2,139.35q-2.95-1.3-5,.25a9.624,9.624,0,0,0-2.75,3.85q-.95,2.05-.65,6.55.25,4.3,1.1,5.35l.75.1q1.15-.25,4.85-3.4l4-3.7.55-1.4.25-2.3-.25-1.95a4.8,4.8,0,0,0-2.85-3.35m-8.95,3.4a8.122,8.122,0,0,1,3.85-5,6.467,6.467,0,0,1,5.75.1A6.581,6.581,0,0,1,245.7,143a7.088,7.088,0,0,1-1.25,6.05,25.341,25.341,0,0,1-5.45,5.4q-3.75,2.9-5.15,2.35-1.55-.6-2.2-5.3a18.744,18.744,0,0,1,.6-8.75" fill="#0d131a"/>
    <path id="Caminho_117" data-name="Caminho 117" d="M233.95,143.2a8.683,8.683,0,0,1,2.65-3.65l4.35-.15a4.263,4.263,0,0,1,2.2,2,10.352,10.352,0,0,1-1.5,4.9,56.5,56.5,0,0,1-7.3,8.9q-.8.1-1.1-4.85-.3-5.05.7-7.15" fill="#fff"/>
    <path id="Caminho_118" data-name="Caminho 118" d="M239.05,151.55q-3.65,3.4-4.65,3.65h-.05a56.5,56.5,0,0,0,7.3-8.9,10.352,10.352,0,0,0,1.5-4.9,6.581,6.581,0,0,1,.55,3.8,6.015,6.015,0,0,1-.65,2.4l-4,3.95" fill="#dbdcdc"/>
    <path id="Caminho_119" data-name="Caminho 119" d="M242.7,168.35l2.4-4.55a4.472,4.472,0,0,1,3.4-1.6,5.364,5.364,0,0,1,5.05,6.35,5.126,5.126,0,0,1-3.1,3.55l-3.85,1.35a14.149,14.149,0,0,1-4.7.9l-1.05-.1q-.4-1.15,1.85-5.9" fill="#0d131a"/>
    <path id="Caminho_120" data-name="Caminho 120" d="M242.8,169.3q-1.95,4.3-1.8,4.7l1.55-.1,3.5-.6a22.361,22.361,0,0,0,4.25-1.7,4.642,4.642,0,0,0,2.8-3.15l.05-1a4.774,4.774,0,0,0-4.6-4.75,3.807,3.807,0,0,0-3.05,1.35l-2.7,5.25m-2.75,5.6q-.55-.5,1.2-4.95a22.4,22.4,0,0,1,3.5-6.5,5.127,5.127,0,0,1,3.75-1.7,5.527,5.527,0,0,1,4.05,1.85,5.307,5.307,0,0,1,1.45,5,6.143,6.143,0,0,1-1.2,2.7l-1.95,1.65a24.469,24.469,0,0,1-5.7,1.55l-5.1.4" fill="#0d131a"/>
    <path id="Caminho_121" data-name="Caminho 121" d="M252.45,166.15a16.441,16.441,0,0,1-3.85,3.95,26.161,26.161,0,0,1-7.15,3.6q-.45-.05,1.95-4.6a41.243,41.243,0,0,1,2.95-5.1,3.275,3.275,0,0,1,2-1.05,3.488,3.488,0,0,1,3.1,1.25,3.349,3.349,0,0,1,1,1.95" fill="#fff"/>
    <path id="Caminho_122" data-name="Caminho 122" d="M250.5,171.05l-4.4,1.55a16.9,16.9,0,0,1-4.65,1.1,26.161,26.161,0,0,0,7.15-3.6,16.441,16.441,0,0,0,3.85-3.95,5.493,5.493,0,0,1-.6,3.15,3.917,3.917,0,0,1-1.35,1.75" fill="#dbdcdc"/>
    <path id="Caminho_123" data-name="Caminho 123" d="M233.75,169.45a19.237,19.237,0,0,0-2.7,2.75q-2.65,3.25-2.3,5.6a8.3,8.3,0,0,0,1.1,3.15,7.586,7.586,0,0,1-4.4-3.05,9.314,9.314,0,0,1-1.75-5.55,9.11,9.11,0,0,1,2.3-6.25,7.007,7.007,0,0,1,5.5-2.6,6.923,6.923,0,0,1,3.75,1.1,8.487,8.487,0,0,1,2.8,2.85,14.475,14.475,0,0,0-4.3,2" fill="#d18200"/>
    <path id="Caminho_124" data-name="Caminho 124" d="M233.75,169.45a13.688,13.688,0,0,1,2.95-1.5q2.05-.85,2.15-.65l-1.75,1-2.65,1.5a14.323,14.323,0,0,0-2.95,3.55q-1.85,3-1.6,4.85a10.183,10.183,0,0,0,3.75,6.15l3.1,2.35q-.25.65-3.7-2.15a10.836,10.836,0,0,1-4.3-6.75q-.35-2.35,2.3-5.6a19.237,19.237,0,0,1,2.7-2.75" fill="#0d131a"/>
    <path id="Caminho_125" data-name="Caminho 125" d="M211.55,221.15l.85,2.05a19.5,19.5,0,0,0,2.15,3.8l6.45,6.5a81.9,81.9,0,0,1,11.65,17.9q6,12,7.5,22.15a49.1,49.1,0,0,1-.35,15.75,66.6,66.6,0,0,1-3,11.2l-2,5.5a22.4,22.4,0,0,0-.4,3.85q-.1,2.15.25,2.45l3.3,2.65a32.783,32.783,0,0,1,4.85,4.75l4.8,6.05,1.15.6q1.25.7,1.45,1.25a6.354,6.354,0,0,1-.2,4.4,7.97,7.97,0,0,1-3.8,4.6l-4.15,2.2q-.3-3-1.1-2.55a5.7,5.7,0,0,1-5.1.7v3.7l-7.05.7-3.55.15q-2.1-4.8-3.45-3.65a3.688,3.688,0,0,1-3.4.7,4.922,4.922,0,0,1-2.85-1.6l-.15,4.5a50.688,50.688,0,0,1-11.6-1.5L202.4,336a7.021,7.021,0,0,1-2.6-2.55,10.837,10.837,0,0,1-1.45-3.95,32.3,32.3,0,0,1,4.8-11.65q.3-.55.2-4.4l2,.4,4.55.2,2.35-.35-2.3-.4-4.2-.7-2.45-.7v-.05a10.974,10.974,0,0,1-3.3-1.7,46,46,0,0,1-9.35-9.1A31.806,31.806,0,0,1,184,286.5a55.027,55.027,0,0,1-.55-11.45,37.728,37.728,0,0,1,5.25-17.15l4.9-7.15,17.95-29.6" fill="#f29600"/>
    <path id="Caminho_126" data-name="Caminho 126" d="M240.95,336.25q.8-.45,1.1,2.55a23.237,23.237,0,0,1-6.2,1.85v-3.7a5.7,5.7,0,0,0,5.1-.7" fill="#d18200"/>
    <path id="Caminho_127" data-name="Caminho 127" d="M221.8,337.85q1.35-1.15,3.45,3.65-5.1.15-9.85-.05l.15-4.5a4.922,4.922,0,0,0,2.85,1.6,3.688,3.688,0,0,0,3.4-.7" fill="#d18200"/>
    <path id="Caminho_128" data-name="Caminho 128" d="M198.35,329.5a10.837,10.837,0,0,0,1.45,3.95,7.021,7.021,0,0,0,2.6,2.55l1.4,3.95q-5.75-1.5-5.9-4.45a25.02,25.02,0,0,1,.45-6" fill="#d18200"/>
    <path id="Caminho_129" data-name="Caminho 129" d="M242.1,335.55l-.2.1a12.147,12.147,0,0,1,3.05-4.65,16.985,16.985,0,0,1,2.9-2.2q1-.55,1.55.15l2.2,3.45,2.55,4.7a13,13,0,0,1,1.25,6.55,6.126,6.126,0,0,1-.6,2.35q-.3-2.1-3-4.5a12.777,12.777,0,0,0-3.7-2.5,29.746,29.746,0,0,1-3.45-1.35q-2.4-1.2-2.55-2.1" fill="#fff"/>
    <path id="Caminho_130" data-name="Caminho 130" d="M241.4,338.65q-.65-.25.5-3l.2-.1q.15.9,2.55,2.1A29.746,29.746,0,0,0,248.1,339a12.777,12.777,0,0,1,3.7,2.5q2.7,2.4,3,4.5a20.993,20.993,0,0,0-4.25-3.7l-4.8-1.95-4.35-1.7" fill="#dbdcdc"/>
    <path id="Caminho_131" data-name="Caminho 131" d="M230.7,330l3.25,4.5q2.9,4.5,2.9,7.15a22.065,22.065,0,0,1-1.05,7.55l-1.05,1.8-.45-.65q.15-2.95-3.15-5.95a15.144,15.144,0,0,0-4.5-3.05q-3.45-1.5-3.9-3.8a14.962,14.962,0,0,1,2.7-5.05,9.515,9.515,0,0,1,3.35-2.4l1.9-.1" fill="#fff"/>
    <path id="Caminho_132" data-name="Caminho 132" d="M226.65,341.35a15.144,15.144,0,0,1,4.5,3.05q3.3,3,3.15,5.95l-2.15-2.55a40.734,40.734,0,0,0-5.25-3.55,37.482,37.482,0,0,0-4.75-2.7q-.3-.05-.1-1.25a13.321,13.321,0,0,1,.7-2.75q.45,2.3,3.9,3.8" fill="#dbdcdc"/>
    <path id="Caminho_133" data-name="Caminho 133" d="M204.95,331.9a10.578,10.578,0,0,1,2.3-2.15q1.4-.85,1.9-.25l3.2,3.85a19.393,19.393,0,0,1,3,4.45q.8,2.7-1.2,7.8a30.45,30.45,0,0,1-2.2,4.55l-.3-.5v-.25a9.085,9.085,0,0,0-1.8-4.8l-2.8-3.25-2.35-2.4-2-2.25a16.149,16.149,0,0,1,2.25-4.8" fill="#fff"/>
    <path id="Caminho_134" data-name="Caminho 134" d="M207.05,341.35l2.8,3.25a9.085,9.085,0,0,1,1.8,4.8v.25a33.366,33.366,0,0,0-2.75-3.75l-6.6-6.4q-.4-.3.4-2.8l2,2.25,2.35,2.4" fill="#dbdcdc"/>
    <path id="Caminho_135" data-name="Caminho 135" d="M242.5,335a6.92,6.92,0,0,0-.95,3.3l.2.3,1.2.45,7.5,3a23.053,23.053,0,0,1,4.05,3.55,5.5,5.5,0,0,0,.6-2.35,11.614,11.614,0,0,0-1.2-6.1l-2.4-4.5-2.15-3.3a.726.726,0,0,0-.6-.35q-.85-.1-3.65,2.3a11.978,11.978,0,0,0-2.6,3.7m-.2,5.8-1.25-.5a1.96,1.96,0,0,1-1.3-1.65,8.2,8.2,0,0,1,1.1-4.4,13.332,13.332,0,0,1,3.05-4.35l2.7-2.1a4.009,4.009,0,0,1,2.35-.65,2.963,2.963,0,0,1,1.9,1.1l2.2,3.45,2.5,4.7a13.492,13.492,0,0,1,1.35,7.25,7.824,7.824,0,0,1-.8,2.85l-.6,1.1-.7.45a.692.692,0,0,1-.75-.3l-.85-.85a20.534,20.534,0,0,0-3.65-3.2,66.85,66.85,0,0,0-7.25-2.9" fill="#0d131a"/>
    <path id="Caminho_136" data-name="Caminho 136" d="M222.35,341.3l.2.25a38.84,38.84,0,0,1,4.55,2.6,36.743,36.743,0,0,1,4.95,3.3l2.45,3.05a3.945,3.945,0,0,0,1-1.75,20.778,20.778,0,0,0,1-7.15q0-3.7-5.65-10.8l-.2-.3-.5-.2a3.562,3.562,0,0,0-1.85.55,9.323,9.323,0,0,0-2.65,2.05,13.249,13.249,0,0,0-2.45,4.5q-1.1,2.9-.85,3.9m-.4,2a2.006,2.006,0,0,1-1.35-1.5q-.45-1.55.8-5a16.251,16.251,0,0,1,2.9-5.15,10.766,10.766,0,0,1,3.05-2.4,5.8,5.8,0,0,1,2.9-.8,2.633,2.633,0,0,1,1.9.95l.15.25q6.05,7.6,6.05,11.95a22.493,22.493,0,0,1-1.15,7.9,6.182,6.182,0,0,1-1.5,2.45l-.8.65-.75.25-.65-.45-.55-.9a13.918,13.918,0,0,0-2.15-2.7,38.44,38.44,0,0,0-4.55-3.05,35.881,35.881,0,0,0-4.3-2.45" fill="#0d131a"/>
    <path id="Caminho_137" data-name="Caminho 137" d="M209.6,330.55l-.45-.55a.765.765,0,0,0-.55-.25,2.961,2.961,0,0,0-1.7.8,8.706,8.706,0,0,0-1.75,1.75,14.159,14.159,0,0,0-1.85,3.7q-1.1,2.9-.7,3.55l2.95,2.75,3.35,3.3a32.518,32.518,0,0,1,2.9,4.05,29.856,29.856,0,0,0,2.6-5.65q1.3-3.95.65-6.1-.4-1.4-5.45-7.35m-5.9.6a10.281,10.281,0,0,1,1.8-1.85,5.09,5.09,0,0,1,3.1-1.4,2.513,2.513,0,0,1,1.95.9l.45.55q5.3,6.2,5.8,8,.9,3-.95,8.1a34.917,34.917,0,0,1-2.45,5.15l-.75,1.3-.8.5-.75-.45-.85-1.3-2.7-3.8-6.15-5.95q-1.45-1.25.15-5.45a19.318,19.318,0,0,1,2.15-4.3" fill="#0d131a"/>
    <path id="Caminho_138" data-name="Caminho 138" d="M209.2,316.25l-2.8-.6q-1.45-.5-1.35-.75l1.25.15,2.55.35,4.1-.1a9.174,9.174,0,0,1,2.7,0l-2.55.6-3.9.35" fill="#0d131a"/>
    <path id="Caminho_139" data-name="Caminho 139" d="M163.1,1.7q3.6-.25,6,5.1a32.606,32.606,0,0,1,1.55,6.15l1.25,7q.35,2.05,3.45,15.2,1.1,4.8,7.05,14.2l2.85,5,.85,2.75q.2,1.6-1.65,7.35a28.567,28.567,0,0,1,.7,9l3.25,9.25,1.75,4.5,2.05,4.05a1.664,1.664,0,0,0,1.45.7q.9.1,1.75,1.7,1.65,3.15-3.35,11.75l-5.3,8q.65,4.25-4,5.6l-7.05.85a10.9,10.9,0,0,0-3.35,1.35,9.751,9.751,0,0,1-4.6,1.05,15.2,15.2,0,0,1-7.2-2.3q-3.55-1.9-4.35-3.2l-3.15-3.9-4.35-5.25-5.85-6.4-5.35-5.6a5.386,5.386,0,0,0-2.55-1.65l-1.25-.2a25.362,25.362,0,0,1-5.8-7.8Q126,82.1,126,80.5a37.955,37.955,0,0,1,.55-4.65,55.057,55.057,0,0,1,1.25-6.05,33.59,33.59,0,0,0,1.5-8.8q0-3.05-2.65-10.6Q125.5,47,119.3,36.8l-4.35-5.35-5.1-5.95a6.888,6.888,0,0,1-1.45-4.9q.15-2.55,1.2-3.3a6.545,6.545,0,0,1,3.55-.8,10.064,10.064,0,0,1,3.7.55q1.15.45,4.55,3.75l6.65,6.65a107.851,107.851,0,0,0,14.2,12.35q2.5,1.75,7.05.75a23.944,23.944,0,0,0,7.25-2.85q2.55-1.5,3.25-5.7a55.657,55.657,0,0,0,.3-7.2l-.55-9.4q-.5-6.75-.45-7.9a8.287,8.287,0,0,1,.9-3.65,3.582,3.582,0,0,1,3.1-2.15" fill="#f29600"/>
    <path id="Caminho_140" data-name="Caminho 140" d="M174.15,101l2.35.9,2,.25,1.75-.05.95-.25.55.1q.15.4-.8.75l-2.4.4a10.464,10.464,0,0,1-4.7-1.2,6.5,6.5,0,0,0-2.05-.45l-1.9-.05q-.6.1-3.35,2.85-1,1-1.5.3-.35-.45.95-1.5l2.1-1.55a5.776,5.776,0,0,1,3-1.15,8.965,8.965,0,0,1,3.05.65" fill="#0d131a"/>
    <path id="Caminho_141" data-name="Caminho 141" d="M174.25,109l-2.2-.6-1.75.5a1.483,1.483,0,0,1-1.5-.4q-.2-.3.75-1a3.544,3.544,0,0,1,1.55-.7,4.435,4.435,0,0,1,1.9.6l1.65.95q.35.3.2.55l-.6.1" fill="#0d131a"/>
    <path id="Caminho_142" data-name="Caminho 142" d="M192.05,100q.25.3-.3,1l-.9,1-1.7,2.6q-.4.7-.9.6-.55-.15-.25-.7a25.306,25.306,0,0,1,1.8-2.7,4.4,4.4,0,0,1,1.25-1.25q.9-.7,1-.55" fill="#0d131a"/>
    <path id="Caminho_143" data-name="Caminho 143" d="M165.5,69.75l-.15-.55a.429.429,0,0,1,.25-.45l.85.4.65,1.8.65.9.35.8-.4.95q-.45.4-.75.3-.35-.15-.35-1.85l-.45-1.15-.65-1.15" fill="#0d131a"/>
    <path id="Caminho_144" data-name="Caminho 144" d="M166.95,74.45q.45.2-.3,3.1l-2.3,6.55-1.3,1.75q-1.1,1.1-1.4.9-.5-.35.55-1.95l.65-.85.65-1,1.25-3,1.2-3.15q.75-2.55,1-2.35" fill="#0d131a"/>
    <path id="Caminho_145" data-name="Caminho 145" d="M178.6,69.6l.25.8.05,1.4-.3,2.4q0,2.4-.8,2.25-.5-.1-.5-.75l.1-1.1.55-2.25q.35-2.7.65-2.75" fill="#0d131a"/>
    <path id="Caminho_146" data-name="Caminho 146" d="M155.75,107.6l.15,2.7a1.057,1.057,0,0,0,.75,1.15q.8.3,1.5-.65l.6.9a3.227,3.227,0,0,1-2.5,1.45q-.9,0-1.35-2.15a20.262,20.262,0,0,1-.3-5.15l1.15,1.75" fill="#0d131a"/>
    <path id="Caminho_147" data-name="Caminho 147" d="M156.45,111.65q-.9-.4-.7-4.05l2.4,3.2-1,.8-.7.05" fill="#fff"/>
    <path id="Caminho_148" data-name="Caminho 148" d="M184.4,67.3l.2,1.3a22.657,22.657,0,0,1,.05,5,7.169,7.169,0,0,1-1.05,2.85,6.916,6.916,0,0,1-2.95,3,21.164,21.164,0,0,1,1-5.8,38.914,38.914,0,0,1,2.75-6.35" fill="#fff"/>
    <path id="Caminho_149" data-name="Caminho 149" d="M261.8,72.05q.35-.15,1.05.45l.9.95q5.35,7.1,10.2,23.45a194.725,194.725,0,0,1,7,35.25,8.933,8.933,0,0,1-.05,2.85q-.2,1.15-.65,1.2-.9.1-1.25-3.9a183.679,183.679,0,0,0-6.6-33.5q-4.6-15.75-9.9-24.65-1.15-1.9-.7-2.1" fill="#0d131a"/>
    <path id="Caminho_150" data-name="Caminho 150" d="M276.1,81.05q.35-.15,1.5,1.4l1.25,1.9q11.7,32.3,8.8,61.55l-.2,2.5q-.25,2.1-.6,2.1-.3,0-.65-1.85l-.3-2.3q1.2-38.2-9.1-61.85-1.4-3.15-.7-3.45" fill="#0d131a"/>
    <path id="Caminho_151" data-name="Caminho 151" d="M66.9,84.7l.65-1q.45-.65.75-.55.35.1.35,1l-.2,1.3q-2.9,8-4.4,21.9a145.277,145.277,0,0,0-.65,27.45v1.85q-.1,1.4-.45,1.4t-.7-1.4l-.3-1.8a131.881,131.881,0,0,1,.1-29q1.6-15.8,4.85-21.15" fill="#0d131a"/>
    <path id="Caminho_152" data-name="Caminho 152" d="M60,96.35q.45-1.5.95-1.35.35.05.45.8v1.1a219.652,219.652,0,0,0-5.2,27.55,180.6,180.6,0,0,0-1.4,28.2q0,2.9-.5,2.95-.35,0-.5-1.25l-.1-1.7a108.441,108.441,0,0,1,.25-28.4A170.052,170.052,0,0,1,60,96.35" fill="#0d131a"/>
    <path id="Caminho_153" data-name="Caminho 153" d="M143.35,69.1a1.475,1.475,0,0,1,1.45.2l10.25,7.6.7.6a3.1,3.1,0,0,1,1.3,1.65l.7,1.45,1.05,2.45-.2.7-2.2.1-6.25-1.2-.55-.15-5.3-1.4q-2.05-.75-2.3-1.75a18.166,18.166,0,0,1-.05-4.25l.5-4.6a1.709,1.709,0,0,1,.9-1.4" fill="#fff"/>
    <path id="Caminho_154" data-name="Caminho 154" d="M143.35,69.1a1.475,1.475,0,0,1,1.45.2l10.25,7.6.7.6a3.1,3.1,0,0,1,1.3,1.65l.7,1.45,1.05,2.45-.2.7-2.2.1-6.25-1.2-.55-.15-5.3-1.4q-2.05-.75-2.3-1.75a18.166,18.166,0,0,1-.05-4.25l.5-4.6a1.709,1.709,0,0,1,.9-1.4" fill="#fff"/>
    <path id="Caminho_155" data-name="Caminho 155" d="M148.75,72.1l.1.1,6.9,5.3a3.1,3.1,0,0,1,1.3,1.65l.7,1.45,1.05,2.45-.2.7-2.2.1-5.8-1.1a14.013,14.013,0,0,1-2.15-7.65,14.771,14.771,0,0,1,.3-3" fill="#008086"/>
    <path id="Caminho_156" data-name="Caminho 156" d="M181.35,79.65l-1.25.65.05-.9a19.214,19.214,0,0,1,1-5.9l1.45-3.75a10.789,10.789,0,0,1,.7,3.85,9.806,9.806,0,0,1-1.95,6.05" fill="#008086"/>
    <path id="Caminho_157" data-name="Caminho 157" d="M181.25,77.75a1.209,1.209,0,0,1-.9-.6l.8-3.65a30.665,30.665,0,0,1,1.4-3.6,8.589,8.589,0,0,1,.1,6.55q-.55,1.3-1.4,1.3" fill="#00666c"/>
    <path id="Caminho_158" data-name="Caminho 158" d="M181.95,76.65q-.35,1.4-1.45,1.2a15.865,15.865,0,0,1,.8-3.15,1.791,1.791,0,0,1,.65,1.95" fill="#0d131a"/>
    <path id="Caminho_159" data-name="Caminho 159" d="M148.75,72.1l.1.1,6.9,5.3a3.1,3.1,0,0,1,1.3,1.65l1.1,2.3-4.5.3a8.509,8.509,0,0,1-4.5-2.25,13.822,13.822,0,0,1-.7-4.4,14.771,14.771,0,0,1,.3-3" fill="#00666c"/>
    <path id="Caminho_160" data-name="Caminho 160" d="M151,82.4l-1.2-.05a14.1,14.1,0,0,1-1.9-7.25,19.387,19.387,0,0,1,.35-3.35l.05-.05q.05.7.9.7l-.25,2.7A13.726,13.726,0,0,0,151,82.4" fill="#0d131a"/>
    <path id="Caminho_161" data-name="Caminho 161" d="M153.8,81.45a1.816,1.816,0,0,1-1.4-.6,2.21,2.21,0,0,1,0-2.8,1.723,1.723,0,0,1,1.25-.55,1.47,1.47,0,0,1,1.15.6,2.121,2.121,0,0,1,.5,1.4l-.35,1.3-1.15.65" fill="#0d131a"/>
    <path id="Caminho_162" data-name="Caminho 162" d="M151.85,78.8a1.472,1.472,0,0,1-1.2-.55,1.908,1.908,0,0,1,.05-2.4,1.517,1.517,0,0,1,1.15-.55,1.43,1.43,0,0,1,1.1.6,1.989,1.989,0,0,1,.45,1.3l-.45,1.1a1.529,1.529,0,0,1-1.1.5" fill="#fff"/>
    <path id="Caminho_163" data-name="Caminho 163" d="M181.65,75.5l-.6-.45-.2-.9a1.958,1.958,0,0,1,.25-1.05q.2-.45.55-.45l.55.5.2,1.05-.2.9-.55.4" fill="#fff"/>
    <path id="Caminho_164" data-name="Caminho 164" d="M144.5,69.75q-1.25-.75-1.55.85l-.5,4.55a16.373,16.373,0,0,0,.05,4.05q.25,1,3.55,1.9l4.25,1,6.2,1.25,1.45.15q.4-.05.35-.4l-1.7-3.75a3.741,3.741,0,0,0-1.15-1.45q-3.4-2.75-5-3.95l-5.95-4.2M143.45,68a69.575,69.575,0,0,1,7,4.6l5,4.15,1.2,1.05a3.387,3.387,0,0,1,1,1.25l2.6,5.45.35.9a.5.5,0,0,1-.35.65l-.4-.3-.25-.65q-.1-.25-.75-.5l-1.25-.25a36.56,36.56,0,0,1-6.15-1l-7.8-1.9a3.77,3.77,0,0,1-1.8-1.6,5.354,5.354,0,0,1-.8-2.95,36.225,36.225,0,0,1,.3-3.95l.25-2.65.1-1.05-.1-.9q-1.4-1.5-1.25-1.75.2-.25,3.1,1.4" fill="#0d131a"/>
    <path id="Caminho_165" data-name="Caminho 165" d="M183.5,73.45a9.678,9.678,0,0,1-2.85,7.3l-.75-.25a7.94,7.94,0,0,0,2.05-2.95,10.183,10.183,0,0,0,.2-7.4l.55-.95a11.854,11.854,0,0,1,.8,4.25" fill="#0d131a"/>
    <path id="Caminho_166" data-name="Caminho 166" d="M184.6,68.6l-.2-1.3a38.914,38.914,0,0,0-2.75,6.35,21.164,21.164,0,0,0-1,5.8,6.916,6.916,0,0,0,2.95-3,7.169,7.169,0,0,0,1.05-2.85,22.657,22.657,0,0,0-.05-5M169.05,8.5q-1.9-6.1-5.45-6.1-2.35,0-3.35,2.7a10.95,10.95,0,0,0-.5,4.75l.65,8.1L160.8,28q-.1,5.2-1.45,7.65a10.329,10.329,0,0,1-3.7,3.4,15.162,15.162,0,0,1-5.15,1.85l-4.6.3,1.95.85,2.35,1.25,1.85,1.45,2.4,2.05q1.15,1.3,1.15,1.65-.05.4-1.65-.75l-2.05-1.35-1.6-1.2a5.887,5.887,0,0,0-2.7-1.65,8.348,8.348,0,0,1-2.5-1,15.706,15.706,0,0,1-3.35-2.3q-6.6-5.45-11.85-10.45L118.3,18.6a6.929,6.929,0,0,0-4.2-1.55q-2.8-.3-4.05.8a3.891,3.891,0,0,0-1,3.35,6.152,6.152,0,0,0,1,3.25l4.7,5.55L120,36.65q9.95,15.9,9.95,23.85a34.387,34.387,0,0,1-.65,6.85l-1.15,4.3-1,4.35a24.383,24.383,0,0,0-.5,3.9,10.719,10.719,0,0,0,.7,3.45,16.24,16.24,0,0,0,2.15,4.3,44.029,44.029,0,0,0,4,5.4l.95.15a2.343,2.343,0,0,1,1.3.3l3.55,2.8a50.744,50.744,0,0,1,5.5,5.65l6.85,7.85a43.03,43.03,0,0,1,4.45,5.75,14,14,0,0,0,4.05,3.4q4.15,2.7,7.45,2.7a8.32,8.32,0,0,0,3.25-.65l1.9-.95a12.819,12.819,0,0,1,5.05-1.15q5.15-.25,6.55-1.25a4.831,4.831,0,0,0,1.5-2.45,7.076,7.076,0,0,1-3.55,2.1q-2.3.5-5.95-1.25l-2.5-.85-2.95-.4-3.5.7a8.762,8.762,0,0,1-4.3-.05,6.836,6.836,0,0,1-2.9-1.7l-1.7-2.45a55.638,55.638,0,0,0-5.45-6.85,107.322,107.322,0,0,0-8.3-8.4,12.036,12.036,0,0,0-3.3-1.5l-3.1-1.2a3.081,3.081,0,0,1-1.2-1.8,23.979,23.979,0,0,1-.55-2.9,7.454,7.454,0,0,1,.05-2.6q.2-.95.5-.95.45.1.5,1.4.55,4.5,1.1,5.45.35.6,2.5,1.25a12.687,12.687,0,0,1,3.55,1.55l5.25,4.45a62.119,62.119,0,0,1,5.7,5.9,71.76,71.76,0,0,1,5.05,7.25l1.85,1.25a8.427,8.427,0,0,0,3.25.6l2.55-.35,2.65-.35,2.95.35,2.85.75a20.773,20.773,0,0,0,4.5,1.65q1.45,0,3.8-2.45a39,39,0,0,0,5.75-8.2,48.159,48.159,0,0,0,2.75-5.85,14.824,14.824,0,0,0,1.25-4.8A2.143,2.143,0,0,0,193.9,93l-2.25-1.65a19.857,19.857,0,0,1-2.55-4.75,38.452,38.452,0,0,1-1.9-5.25q-.85-3.1-2.1-6.5a14.067,14.067,0,0,1-2.3,4.5l-1.45,1.3a1.625,1.625,0,0,0-.85,1.25l-.25.5-.45-.1a4.883,4.883,0,0,1-.45-2.2l.45-3.25a18.719,18.719,0,0,1,.95-3.75l3.45-8.9a21.764,21.764,0,0,0,1.3-6.7,8.143,8.143,0,0,0-.75-3.5,17.722,17.722,0,0,0-2-2.95,36.316,36.316,0,0,1-3.15-4.8,53.17,53.17,0,0,1-3.35-6.8,98.69,98.69,0,0,1-4.8-18.95q-1.8-10.1-2.4-12m1.2-2.35,2.7,12.65,2.7,12.35a59.651,59.651,0,0,0,4.6,11.35l3.65,6.7a26.221,26.221,0,0,1,2.6,5.85,12.345,12.345,0,0,1,.3,3.35l-.6,2.65-.95,3.4.35,2.4a36.356,36.356,0,0,1,.15,6.35l3.8,10.75,1.8,4.15a10.148,10.148,0,0,0,1.8,2.65l2.05,1.45a3.236,3.236,0,0,1,1.4,2.6q0,3.05-2.7,8.7a43.008,43.008,0,0,1-6.05,9.65,9.246,9.246,0,0,1-2.3,5.15q-1.1,1.25-4.3,1.8l-5.55.65a15.56,15.56,0,0,0-4.15,1.5,9.674,9.674,0,0,1-4.3,1.15,14.573,14.573,0,0,1-6.05-1.7,18.655,18.655,0,0,1-4.4-2.8l-3.3-3.8-4.9-6.05L137.95,97.2a5.966,5.966,0,0,0-3.15-1.8l-1.75-.35-2.7-3.1-2.7-3.5-2.1-3.85a9.955,9.955,0,0,1-1.25-3.7q0-1.6,1.85-9.1a52.437,52.437,0,0,0,1.65-11.35q0-2.9-2.4-9.1a73.32,73.32,0,0,0-4.65-10,54.427,54.427,0,0,0-6.85-8.8l-5.85-6.4a7.939,7.939,0,0,1-1.7-5.75A5.827,5.827,0,0,1,108.3,16a7.774,7.774,0,0,1,4.85-1.45,8.1,8.1,0,0,1,6.2,2.15l9,8.95,8.4,8.35q5,4.45,7.05,5.35a10.444,10.444,0,0,0,4.35.5,14.14,14.14,0,0,0,4.95-.95,11.6,11.6,0,0,0,3.85-2.4,7.9,7.9,0,0,0,1.95-5.6l.05-6.8-.2-5.95-.8-10.6a8.082,8.082,0,0,1,1.3-4.6A5.54,5.54,0,0,1,163.2.05a5.449,5.449,0,0,1,4.5,1.65,8.71,8.71,0,0,1,2.55,4.45" fill="#0d131a"/>
  </g>
</svg>
