<svg xmlns="http://www.w3.org/2000/svg" width="133.907" height="168.486" viewBox="0 0 133.907 168.486">
  <g id="pikachu" transform="translate(0.043 -0.014)">
    <path id="Caminho_1" data-name="Caminho 1" d="M78.85,140.5q-8.1,5.25-11.8,7.15a3.38,3.38,0,0,1-4.75-1q-1.85-2.5-.25-3.45a100.575,100.575,0,0,0,9.7-6.95,78.487,78.487,0,0,0,7.7-6.7A49.558,49.558,0,0,0,74,123.6l4-3,5.75-1.65-1.1,3.45a43.489,43.489,0,0,1,4.5-1.75l-.45,4.5-.9.9,4.35,6.3q-2.5,2.4-11.3,8.15" fill="#763a00"/>
    <path id="Caminho_2" data-name="Caminho 2" d="M132.75,45q-.1,15,.25,22.05-8.6,1.9-20.9,5.95-14.65,4.85-22.45,9.15L94.3,88.9l6.05,8.1a147.006,147.006,0,0,0-12.55,9.05l9.2,10.3-10.3,8.8.45-4.5a43.489,43.489,0,0,0-4.5,1.75l1.1-3.45L78,120.6l4.95-4.2q-4.7-2.9-11.6-8.2L82.05,96,69.5,81.4,53.75,63.75Q100.65,33.5,133,24.85q-.2,8.55-.25,20.15" fill="#ffe100"/>
    <path id="Caminho_3" data-name="Caminho 3" d="M78,120.45l5.65-2.2.6.05.1.45-1.05,2.8,3.55-1.6q.85-.3.85.45a23.686,23.686,0,0,1-.7,4.75l-1,.75.5-4.45a25.671,25.671,0,0,0-3.7,1.35q-.95.35-.7-.55l.85-2.55q-4.05,1.25-6.15,2l1.2-1.25" fill="#763a00"/>
    <path id="Caminho_4" data-name="Caminho 4" d="M79.2,140.3l-12.25,6.95a137.152,137.152,0,0,0,11.3-8.45L88.5,130l1.75,2.35A74.794,74.794,0,0,1,79.2,140.3" fill="#542400"/>
    <path id="Caminho_5" data-name="Caminho 5" d="M111.7,73.2q-12.3,4.15-22.85,8.5,5.95-4.05,20.2-10.7,15.65-7.3,23.65-9.1l.2,5.15a205.686,205.686,0,0,0-21.2,6.15" fill="#f9be00"/>
    <path id="Caminho_6" data-name="Caminho 6" d="M97.6,93.55l2.85,3.5L86.9,105.8q7.9-9.75,10.7-12.25" fill="#f9be00"/>
    <path id="Caminho_7" data-name="Caminho 7" d="M96.8,116.45l-4.3,3.45-5.3,4.35.3-2a74.926,74.926,0,0,1,6.6-9l2.7,3.2" fill="#f9be00"/>
    <path id="Caminho_8" data-name="Caminho 8" d="M87.2,124.25l-2,1.5,2.3-3.5-.3,2" fill="#542400"/>
    <path id="Caminho_9" data-name="Caminho 9" d="M133.85,24.35q-.35,4.8-.25,21.05l.2,22.15-.35.45a207.763,207.763,0,0,0-23.25,6.55,159.981,159.981,0,0,0-19.4,7.9q3.2,4.85,10.5,14.5a.35.35,0,0,1-.1.6q-7.9,5.2-12.25,8.6l8.9,10.15q.3.3-.05.6l-6.6,5.45q-3.45,2.85-4.4,3.85l4.15,6.15-.05.55a62.3,62.3,0,0,1-8.7,6.3q-7.15,4.55-14.7,8.55l-.9.1q-.15-.3.55-.7,18.05-11.2,22-14.85l-4.05-5.95a.393.393,0,0,1,.05-.55l4.2-4.05,6.25-5.4q-5.6-6.75-8.8-9.95-.35-.35.05-.6,6.05-4.85,12.2-8.9-6.35-8.5-10.4-14.6-.3-.4.15-.6a174.948,174.948,0,0,1,19.6-8.2,183.547,183.547,0,0,1,23.6-7q-.45-6.8-.4-20.85.05-13.75.45-19.55-16.45,4.5-39.9,16.35a276.891,276.891,0,0,0-36.7,21.7q6.8,7.3,27.55,31.7a.365.365,0,0,1,0,.55l-5.45,6.05-5,5.7q8.9,6.7,11.05,8.05.45.3.05.7l-8.2,6.8a51.6,51.6,0,0,1,4.9,5.8.365.365,0,0,1,0,.55,51.549,51.549,0,0,1-7.7,6.55,99.987,99.987,0,0,1-10.15,6.75l-.8.1q-.2-.25.35-.65l9.3-6.95a60.152,60.152,0,0,0,7.1-6.2,39.428,39.428,0,0,0-5.1-5.65.377.377,0,0,1,.05-.65l8.25-6.75q-4.85-3.2-11.2-7.9-.35-.3-.05-.6L80.9,96.05,66.75,79.6,52.95,64.2a.407.407,0,0,1,.05-.65Q68,52.45,91.85,40.6q24.5-12.2,41.5-16.7.6-.15.5.45" fill="#0d131a"/>
    <path id="Caminho_10" data-name="Caminho 10" d="M12.5,12.55q-3.05,1.7-5.35,7.85A34.8,34.8,0,0,0,4.9,30.5,90.433,90.433,0,0,1,1.35,12.55Q.05,1.25,1.7.8,3.3.35,6.6,4.2a68.986,68.986,0,0,1,5.9,8.35" fill="#0d131a"/>
    <path id="Caminho_11" data-name="Caminho 11" d="M91.25,7.85q1.65,2.65,1.35,9.8A45.784,45.784,0,0,1,90.9,28.6a68.907,68.907,0,0,1-8.8,7.8,38.747,38.747,0,0,1-9.8,5.85,30.539,30.539,0,0,1,7.45,8.65A37.139,37.139,0,0,1,83,58.75a29.24,29.24,0,0,1,.3,16.1q-1.85,7.5-5.85,11.55-9.2,8.6-23.8,10.55A56.5,56.5,0,0,1,29.6,95.2a22.56,22.56,0,0,1-9.1-5.95A26.058,26.058,0,0,1,14,78.15a27.935,27.935,0,0,1-.75-12.55,31.14,31.14,0,0,1,3.25-9.75q-3.1-3.5-6.95-12.15A91.446,91.446,0,0,1,5,31.3,31.467,31.467,0,0,1,7.9,18.5a15.008,15.008,0,0,1,4.4-5.8,76.146,76.146,0,0,1,7.85,15.65q4.1,10.45,4.65,17a37.954,37.954,0,0,1,18.05-8.9q9.95-2.15,17.45.1Q65.4,28.45,75.95,19q9.55-8.5,15.3-11.15" fill="#ffe100"/>
    <path id="Caminho_12" data-name="Caminho 12" d="M33.95,92.7a80.5,80.5,0,0,1,17.1-6.3A76.458,76.458,0,0,1,67,85.15q9.8,0,10.45,1.25a83.571,83.571,0,0,1,5.6,15.1,151.457,151.457,0,0,1,4.4,20.95q3.55,26.8-5.8,33.8-6.85,5.2-23.95-1.15-7.5-2.7-11.05-3.55a34.928,34.928,0,0,0-9.35-.85,23.237,23.237,0,0,1-8.6-1.1,10.248,10.248,0,0,1-4.9-3.05q-3.4-4.4-2.55-14.85a73.157,73.157,0,0,1,3.2-15.95l2.85-8.1,2.8-7.55q.55-1.35,2.25-4.5l1.6-2.9" fill="#ffe100"/>
    <path id="Caminho_13" data-name="Caminho 13" d="M33.95,92.7q1.6-.55,2.5,3a13.913,13.913,0,0,1-.35,7.8,22.164,22.164,0,0,1-5.35,8.4q-3.9,4.1-6.3,3.85a15.41,15.41,0,0,1-5.2-.8q-2.25-.8-2.35-1.5A2.28,2.28,0,0,1,18,111.6l-1.8-3.3a5.408,5.408,0,0,1-.8-2.1q.25-.4,1.95-.25-.05-2.95,2.2-1.75.1-2.35,1.95-.65a26.733,26.733,0,0,1,4-4.85,30.3,30.3,0,0,1,4.1-3.5,11.6,11.6,0,0,1,4.35-2.5" fill="#ffe100"/>
    <path id="Caminho_14" data-name="Caminho 14" d="M91.25,7.85A68.584,68.584,0,0,1,101.9,3.4q6.75-2.15,7.85-.5,1.4,2.1-6.3,12.1a96.531,96.531,0,0,1-12.9,14.1A42.209,42.209,0,0,0,92.6,17.9,24.831,24.831,0,0,0,91.25,7.85" fill="#0d131a"/>
    <path id="Caminho_15" data-name="Caminho 15" d="M15.95,146.25a16.625,16.625,0,0,1,5.7-3.15q2.8,6.65,12.05,7.55a35.7,35.7,0,0,1-10.45,3.15q-6.1.9-7.15-.5-2.05.5-2.4-.55a2.109,2.109,0,0,1,.4-1.9q-1.45-1.9,1.85-4.6" fill="#ffe100"/>
    <path id="Caminho_16" data-name="Caminho 16" d="M72.8,158.55a15.967,15.967,0,0,0,7.4-1.4,9.374,9.374,0,0,0,4.45-3.75,22.7,22.7,0,0,1,3.2,8.15q.6,3.95-1.2,5Q86.6,168,85.3,168a2.52,2.52,0,0,1-1.9-.95q-.6,1.65-4.8-1.45a16.427,16.427,0,0,1-5.8-7.05" fill="#ffe100"/>
    <path id="Caminho_17" data-name="Caminho 17" d="M40.95,77.95l3.4-2.2a9.8,9.8,0,0,1,3-1.35l2.8-.5,4.25-.45a6.511,6.511,0,0,1-1.1,2.9l-5.5.3a5.325,5.325,0,0,0-3.55,3.15l-3.3-1.85" fill="#b50005"/>
    <path id="Caminho_18" data-name="Caminho 18" d="M44.2,79.75a6.793,6.793,0,0,1,3.65-3.05,7.667,7.667,0,0,1,5.55-.3q-4.1,5.4-9.2,3.35" fill="#e50012"/>
    <path id="Caminho_19" data-name="Caminho 19" d="M17,112.75q.8.6,3.6.65l4.6-.5-.7,2.75a14.684,14.684,0,0,1-5.45-.85q-2.85-1-2.05-2.05" fill="#f9be00"/>
    <path id="Caminho_20" data-name="Caminho 20" d="M47.25,98.05q-.05-.7,3.45-1.25l3.6.2q.05.6-1.35,1.25l-2.2.65-2.15-.1q-1.35-.25-1.35-.75" fill="#f9be00"/>
    <path id="Caminho_21" data-name="Caminho 21" d="M21.25,134.6q1.8,13.35,14.7,12.3a39.3,39.3,0,0,1,12.55.9,69.983,69.983,0,0,1,12.55,4.65,20.463,20.463,0,0,0,16.4.9q10.35-3.8,11.3-18.3-.1,11.35-3,16.65-4.65,8.65-17.25,6.35a140.519,140.519,0,0,1-15.8-4.6q-9.5-3.15-12.45-2.8-9.3,1.1-14.4-2.65-5.65-4.15-4.6-13.4" fill="#f9be00"/>
    <path id="Caminho_22" data-name="Caminho 22" d="M17.65,145.2a6.129,6.129,0,0,1,2.1-1.05l2.25-.8q1,2.9,4.95,5.15a13.681,13.681,0,0,0,6.7,2.05,26.764,26.764,0,0,1-7.05,2.55q-4.65-6.95-8.95-7.9" fill="#f9be00"/>
    <path id="Caminho_23" data-name="Caminho 23" d="M76.6,163.9l-2.05-2.5a10.689,10.689,0,0,1-1.4-2.85,11.553,11.553,0,0,0,11.4-5.1,17.679,17.679,0,0,1,2,3.7,12.3,12.3,0,0,0-6.15,2.05,8.926,8.926,0,0,0-3.8,4.7" fill="#f9be00"/>
    <path id="Caminho_24" data-name="Caminho 24" d="M25.15,62.8a5.229,5.229,0,0,1,4.5.8,7.2,7.2,0,0,1,2.85,4.2,5.822,5.822,0,0,1-.45,4.8,5.965,5.965,0,0,1-3.55,2.75,6.255,6.255,0,0,1-4.75-.5A5.564,5.564,0,0,1,20.8,71.3a6.993,6.993,0,0,1,.4-5.2,5.874,5.874,0,0,1,3.95-3.3" fill="#0d131a"/>
    <path id="Caminho_25" data-name="Caminho 25" d="M24.85,63.5l2.25.1a2.755,2.755,0,0,1,1.45,1.55,3.124,3.124,0,0,1,0,2.2A2.718,2.718,0,0,1,26.9,68.9l-2.25-.1a2.572,2.572,0,0,1-1.4-1.65,3.069,3.069,0,0,1,.15-2.25,2.4,2.4,0,0,1,1.45-1.4" fill="#fff"/>
    <path id="Caminho_26" data-name="Caminho 26" d="M60.95,51.5a6.557,6.557,0,0,1,5.45.6,6.354,6.354,0,0,1,3.35,4.55,6.841,6.841,0,0,1-.75,4.9,6.285,6.285,0,0,1-3.6,3.15,6.642,6.642,0,0,1-8.5-4.1,7.429,7.429,0,0,1,.3-5.75,6.009,6.009,0,0,1,3.75-3.35" fill="#0d131a"/>
    <path id="Caminho_27" data-name="Caminho 27" d="M60.6,52.25a2.656,2.656,0,0,1,2.25,0,2.71,2.71,0,0,1,1.6,1.6,3.124,3.124,0,0,1,0,2.2A2.41,2.41,0,0,1,62.9,57.7a2.922,2.922,0,0,1-2.25,0,2.728,2.728,0,0,1-1.55-1.55,3.082,3.082,0,0,1-.05-2.25,2.708,2.708,0,0,1,1.55-1.65" fill="#fff"/>
    <path id="Caminho_28" data-name="Caminho 28" d="M43.9,70.65q-.05-.2,1.05-.5l1.1-.2-.3.65-.65.45L44.4,71l-.5-.35" fill="#0d131a"/>
    <path id="Caminho_29" data-name="Caminho 29" d="M78.1,63.9q1.9.75,2.5,3.95a11.108,11.108,0,0,1-.5,6.25,9.859,9.859,0,0,1-3.9,5.15,4.782,4.782,0,0,1-4.9.6,5.508,5.508,0,0,1-2.95-4.05,9.61,9.61,0,0,1,.75-6.4,10.823,10.823,0,0,1,4.25-5,5.315,5.315,0,0,1,4.75-.5" fill="#e50012"/>
    <path id="Caminho_30" data-name="Caminho 30" d="M25.1,82.9a15.821,15.821,0,0,1,2.95,5.55q.75,2.9-.65,3.9-1.35.95-3.85-.55a20.244,20.244,0,0,1-4.6-3.95,14.565,14.565,0,0,1-3-5.05q-.85-2.65.25-3.75,1.35-1.25,4.1-.05a12.447,12.447,0,0,1,4.8,3.9" fill="#e50012"/>
    <path id="Caminho_31" data-name="Caminho 31" d="M5.15,1.95q6,5.7,11.65,16.75a82.443,82.443,0,0,1,8.5,26.25l-1,.9A87.456,87.456,0,0,0,15.2,19.1,76.623,76.623,0,0,0,4.45,2.75Q2.9,1.15,2.2,1.2q-.9.1-.95,2.65Q1,12.55,4.8,27.25,9.4,45.05,16.7,55.3l-.5,1.25Q8.25,46.3,3.45,28.6-.75,13.05.1,3.7.35.4,1.65.05q1.2-.3,3.5,1.9" fill="#0d131a"/>
    <path id="Caminho_32" data-name="Caminho 32" d="M5.6,32.25,4.55,29.7a33.581,33.581,0,0,1,2.4-10.65,16.657,16.657,0,0,1,5-6.95l.75,1.05A16.62,16.62,0,0,0,7.6,20.9a36.842,36.842,0,0,0-2,11.35" fill="#0d131a"/>
    <path id="Caminho_33" data-name="Caminho 33" d="M93.55,25.2q10.3-10.75,14.85-18.7,1.45-2.5.9-3.25l-3.75-.1q-8.75,1.7-19.65,8.9A92.631,92.631,0,0,0,60.85,36.7l-1.15-.35Q70.8,20,85.05,10.65q10.65-7,20.2-8.6,4.3-.75,5.15.55.75,1.2-.95,4.45-4.75,8.9-15.2,19.6Q82.45,38.7,72.85,42.7l-1.05-.75q9.45-4,21.75-16.75" fill="#0d131a"/>
    <path id="Caminho_34" data-name="Caminho 34" d="M91.6,28l-1.85,1.55a45.822,45.822,0,0,0,2.3-13.6q0-5.45-1.2-7.5l1-.7Q93.15,10,93.35,15A42.161,42.161,0,0,1,91.6,28" fill="#0d131a"/>
    <path id="Caminho_35" data-name="Caminho 35" d="M79.55,92.4q-.35-1.15,0-1.3.4-.15.8,1Q89.1,116.35,89,135.5q-.15,19.35-9.4,22.95-5.05,1.95-14.45-.15a120.826,120.826,0,0,1-14.95-4.65,50.644,50.644,0,0,0-5.9-1.85l-6.2-.45-7.85-.5a13.591,13.591,0,0,1-7.4-4.25q-3.7-4.05-1.85-17.45a103.243,103.243,0,0,1,8.45-28.4q.45-1,.85-.85.35.15-.1,1.15a114.185,114.185,0,0,0-7.8,27.85q-1.65,12.8,1.75,16.6a12.46,12.46,0,0,0,6.65,4l7.3.55,6.8.45a36.073,36.073,0,0,1,5.75,1.85q20.05,7.6,28.3,4.45,8.45-3.2,8.3-22.15-.1-18-7.7-42.25" fill="#0d131a"/>
    <path id="Caminho_36" data-name="Caminho 36" d="M28.8,94.95l1.45.45a35.683,35.683,0,0,0-9.15,9.4q-.55.85-.85.7-.3-.2.25-1.05a30.041,30.041,0,0,1,8.3-9.5" fill="#0d131a"/>
    <path id="Caminho_37" data-name="Caminho 37" d="M37,78.5q-.45-.3-.25-.55l.7-.05q1.85.7,5.55-1.95a13.789,13.789,0,0,1,3.75-2.05,16.362,16.362,0,0,1,4.55-.65l3.35-.5a2.55,2.55,0,0,0,1.7-1.7q.25-.6.55-.5.3.05.2.7-.6,3.05-5.8,3.25l-4.2.6A13.5,13.5,0,0,0,43.65,77q-4.3,3.1-6.65,1.5" fill="#0d131a"/>
    <path id="Caminho_38" data-name="Caminho 38" d="M41.5,77.55q4,3.1,7.4,1.9a7.217,7.217,0,0,0,3.15-2.3,9.228,9.228,0,0,0,1.85-3.7l1.35-.25a8.426,8.426,0,0,1-2.1,4.35,9.607,9.607,0,0,1-3.9,2.75l-4.3.25A10.984,10.984,0,0,1,40.4,78.3l1.1-.75" fill="#0d131a"/>
    <path id="Caminho_39" data-name="Caminho 39" d="M14.1,147.4q2.3-3,7.45-4.9l.45,1.2a18.872,18.872,0,0,0-6.55,3.95q-1.85,1.95-1.1,2.9l-.75,1.05q-1.6-1.45.5-4.2" fill="#0d131a"/>
    <path id="Caminho_40" data-name="Caminho 40" d="M18.05,147.25q.7-.35.85,0,.2.3-.5.7a12.241,12.241,0,0,0-2.95,2.4q-1.35,1.45-1.05,2.2l1.7.15.45,1.1-2.05.2q-1.2-.15-1.45-.85-.5-1.35,1.35-3.3a10.836,10.836,0,0,1,3.65-2.6" fill="#0d131a"/>
    <path id="Caminho_41" data-name="Caminho 41" d="M32.95,150.5l2.05.3a40.2,40.2,0,0,1-12.45,3.7q-6.8.9-7.35-.95-.3-.95,1.25-2.4A8.353,8.353,0,0,1,20.3,149q.7-.15.8.15.1.35-.55.6a10.318,10.318,0,0,0-2.85,1.65q-1.15,1-1,1.6.2.85,5,.4a39.2,39.2,0,0,0,11.25-2.9" fill="#0d131a"/>
    <path id="Caminho_42" data-name="Caminho 42" d="M72.1,158.5l1.45-.1a14.809,14.809,0,0,0,5,6.5q3.25,2.55,4.2,2,.45-.3-.15-1.95a17.64,17.64,0,0,0-1.75-3.6q-.35-.5-.05-.7.25-.15.65.3a11.049,11.049,0,0,1,2.2,4.2q.65,2.45-.3,2.95-1.45.75-5.35-2.15a16.521,16.521,0,0,1-5.9-7.45" fill="#0d131a"/>
    <path id="Caminho_43" data-name="Caminho 43" d="M84.55,160.3q-.3-.7.05-.85.3-.15.65.5a14.008,14.008,0,0,1,1.85,5.85q.05,2.2-1.05,2.65l-1.35.05a3.08,3.08,0,0,1-1.6-.95l.5-1.1q1.25,1.25,2,.9.6-.3.4-2.1a20.449,20.449,0,0,0-1.45-4.95" fill="#0d131a"/>
    <path id="Caminho_44" data-name="Caminho 44" d="M84.15,153.9l.9-1.1a23.473,23.473,0,0,1,3.35,8.9q.6,4.75-1.95,5.85l.15-1.4q1.25-1.2.5-4.9a24.433,24.433,0,0,0-2.95-7.35" fill="#0d131a"/>
    <path id="Caminho_45" data-name="Caminho 45" d="M53.5,75.85l-.45.9a7.261,7.261,0,0,0-4.85.3,5.85,5.85,0,0,0-3.5,2.85l-1-.3a6.884,6.884,0,0,1,3.95-3.4,9.052,9.052,0,0,1,5.85-.35" fill="#0d131a"/>
    <path id="Caminho_46" data-name="Caminho 46" d="M17.6,53.15q.55-.8.9-.6.35.25-.15,1.05a32.95,32.95,0,0,0-4.3,12,30.005,30.005,0,0,0,.8,12.4A24.275,24.275,0,0,0,21.5,89.3a27.468,27.468,0,0,0,11.75,6.45q1.35.4,1.25.75l-1.45.15A25.8,25.8,0,0,1,20.4,90.3a24.542,24.542,0,0,1-7.35-11.85,28.925,28.925,0,0,1-.55-13,30.382,30.382,0,0,1,5.1-12.3" fill="#0d131a"/>
    <path id="Caminho_47" data-name="Caminho 47" d="M50.35,35a31.652,31.652,0,0,1,12.1,1.8q.9.35.8.7l-1.05.1q-11.6-3.2-24.6,1.3A37.7,37.7,0,0,0,23.7,47q-.7.65-.95.4-.3-.3.35-1a32.254,32.254,0,0,1,14-9A44.311,44.311,0,0,1,50.35,35" fill="#0d131a"/>
    <path id="Caminho_48" data-name="Caminho 48" d="M83.2,56.3a32.739,32.739,0,0,1,1.4,15.2q-1.2,9.35-6.6,15-.65.7-.9.45-.3-.25.25-1a29.419,29.419,0,0,0,5.7-14.8A31.353,31.353,0,0,0,81.6,56.8,30.757,30.757,0,0,0,70.2,41.35q-.85-.6-.6-.9.2-.3,1.1.2a27.238,27.238,0,0,1,7.5,6.55,31.056,31.056,0,0,1,5,9.1" fill="#0d131a"/>
    <path id="Caminho_49" data-name="Caminho 49" d="M21.65,103.1l-.6.75q-.6-.45-.85-.35l-.2.6-.3.65-.75-.2-.75-.15q-.35.15-.4,1l-.2.95h-.9l-.75.15q-.2.3,1.15,2.65l1.4,2.45-.55.7q-.6.6-.55,1,.1.6,2.85,1.25l4.3.45-.25,1.2a12.275,12.275,0,0,1-5.05-.8q-2.9-.95-3.1-1.9-.15-.9,1.2-1.95-2.85-4.75-2.5-5.6.15-.35.9-.45l1.25.1a2.879,2.879,0,0,1,.1-1.3,1.241,1.241,0,0,1,.5-.85l.75-.1a2.178,2.178,0,0,1,.85.35q.1-1.15.7-1.3l.85.15.9.55" fill="#0d131a"/>
    <path id="Caminho_50" data-name="Caminho 50" d="M94.05,98.6a27.814,27.814,0,0,1-12.85,9.3q-5.25,1.8-11.75-4.35-6.55-6.2-3.4-10.6a44.922,44.922,0,0,1,8.7-8.8A34.587,34.587,0,0,1,86.8,77.5q2.05-3.25,2.65-3.4l1.45.3a4.6,4.6,0,0,1,1.85,1.75A6.883,6.883,0,0,1,97.2,78.6a8.346,8.346,0,0,1,2.05,5.3q.3,7.7-5.2,14.7" fill="#ffe100"/>
    <path id="Caminho_51" data-name="Caminho 51" d="M98.7,81.3q2.8,7.55-3.9,16.55-6.3,8.55-13.65,9.55,6.8-3.15,12.4-11.55Q99.1,87.5,98.7,81.3" fill="#f9be00"/>
    <path id="Caminho_52" data-name="Caminho 52" d="M91.25,74.1a4.282,4.282,0,0,1,1.85,1.7q6.3.75,6.9,8.75.5,6.7-4.45,13.55A27.028,27.028,0,0,1,81.6,108.15l-1.05-.1q-.15-.4.75-.75a28.322,28.322,0,0,0,12.85-9.8q4.95-6.65,4.55-12.8-.5-6.7-5.6-7.9a.914.914,0,0,1-.85-.5A2.5,2.5,0,0,0,91,75.25L89.45,75q-.45.15-1.2,1.4-.75,1.35-1.2,1.5a48.4,48.4,0,0,0-10.3,5.45,53.769,53.769,0,0,0-10,9.45q-.6.7-.95.45-.3-.25.25-1.05A48.149,48.149,0,0,1,77.1,81.5a36.549,36.549,0,0,1,9.25-4.45l1.25-1.6q.9-1.45,1.65-1.6a2.861,2.861,0,0,1,2,.25" fill="#0d131a"/>
    <path id="Caminho_53" data-name="Caminho 53" d="M90.1,77.05l.9-.15q.25.15-.25.7-.55.65-.55.85a1.5,1.5,0,0,0,.3.8l.3.6-.4.55a1.47,1.47,0,0,0-.4,1,2.222,2.222,0,0,0,.4,1.25l.4.75-.25.6a1.43,1.43,0,0,0-.25.9,2.06,2.06,0,0,0,.6,1l.6.75-.25.75a2.135,2.135,0,0,0-.1,1.1l.8.7,1.35.45q.65.05.65.4l-.55.4-1.85-.3a1.853,1.853,0,0,1-1.4-2.25,2.079,2.079,0,0,1,.45-1.1l-.85-.7a1.916,1.916,0,0,1-.45-1,1.723,1.723,0,0,1,.7-1.7,2.937,2.937,0,0,1-1.1-1.85,1.956,1.956,0,0,1,1-1.85,1.614,1.614,0,0,1-.65-1.35,1.019,1.019,0,0,1,.25-.75l.6-.55" fill="#0d131a"/>
    <path id="Caminho_54" data-name="Caminho 54" d="M17.6,53.15q.55-.8.9-.6.35.25-.15,1.05a32.95,32.95,0,0,0-4.3,12,30.005,30.005,0,0,0,.8,12.4A24.275,24.275,0,0,0,21.5,89.3a27.468,27.468,0,0,0,11.75,6.45q1.35.4,1.25.75l-1.45.15A25.8,25.8,0,0,1,20.4,90.3a24.542,24.542,0,0,1-7.35-11.85,28.925,28.925,0,0,1-.55-13,30.382,30.382,0,0,1,5.1-12.3" fill="#0d131a"/>
  </g>
</svg>
