<svg xmlns="http://www.w3.org/2000/svg" x="0px" y="0px"
width="32" height="32"
viewBox="0 0 172 172"
style=" fill:#000000;"><g fill="none" fill-rule="nonzero" stroke="none" stroke-width="1" stroke-linecap="butt" stroke-linejoin="miter" stroke-miterlimit="10" stroke-dasharray="" stroke-dashoffset="0" font-family="none" font-weight="none" font-size="none" text-anchor="none" style="mix-blend-mode: normal"><path d="M0,172v-172h172v172z" fill="none"></path><g fill="#ffffff"><path d="M68.8,24.51c-34.15673,0 -61.92,27.76327 -61.92,61.92c0,34.15673 27.76327,61.92 61.92,61.92c15.93923,0 30.43794,-6.09749 41.4211,-16.0175l17.58297,28.15828c0.73431,1.17025 2.09743,1.78772 3.46139,1.56796c1.36396,-0.21976 2.46417,-1.23412 2.79376,-2.57578l30.96,-127.28c0.24783,-1.01926 0.01712,-2.0959 -0.62661,-2.9241c-0.64372,-0.82821 -1.63012,-1.31749 -2.67902,-1.32887c-0.71543,-0.00716 -1.4153,0.2089 -2.00219,0.61812l-37.71906,26.31734c-10.8035,-18.15407 -30.56581,-30.37547 -53.19235,-30.37547zM68.8,31.39c13.97834,0 26.683,5.2343 36.38203,13.7936l-19.53813,19.53812c-4.66297,-3.62879 -10.50047,-5.81172 -16.8439,-5.81172c-15.15813,0 -27.52,12.36187 -27.52,27.52c0,6.34343 2.18293,12.18093 5.81172,16.8439l-19.53812,19.53813c-8.55929,-9.69903 -13.79359,-22.40369 -13.79359,-36.38203c0,-30.4385 24.6015,-55.04 55.04,-55.04zM156.19078,39.41219l-26.88172,110.51l-14.1161,-22.61531c9.62992,-10.91699 15.52703,-25.20071 15.52703,-40.87687c0,-9.05926 -2.00207,-17.64254 -5.50937,-25.4036zM110.0464,50.04797c8.55929,9.69903 13.7936,22.40369 13.7936,36.38203c0,30.4385 -24.6015,55.04 -55.04,55.04c-13.97834,0 -26.683,-5.2343 -36.38203,-13.7936l19.53813,-19.53812c4.66297,3.62879 10.50047,5.81172 16.8439,5.81172c15.15813,0 27.52,-12.36187 27.52,-27.52c0,-6.34343 -2.18293,-12.18093 -5.81172,-16.8439zM68.8,65.79c11.4399,0 20.64,9.2001 20.64,20.64c0,11.4399 -9.2001,20.64 -20.64,20.64c-11.4399,0 -20.64,-9.2001 -20.64,-20.64c0,-11.4399 9.2001,-20.64 20.64,-20.64z"></path></g></g></svg>