<svg xmlns="http://www.w3.org/2000/svg" x="0px" y="0px"
width="32" height="32"
viewBox="0 0 172 172"
style=" fill:#000000;"><g fill="none" fill-rule="nonzero" stroke="none" stroke-width="1" stroke-linecap="butt" stroke-linejoin="miter" stroke-miterlimit="10" stroke-dasharray="" stroke-dashoffset="0" font-family="none" font-weight="none" font-size="none" text-anchor="none" style="mix-blend-mode: normal"><path d="M0,172v-172h172v172z" fill="none"></path><g fill="#ffffff"><path d="M86,10.32c-20.85771,0 -37.84,16.98229 -37.84,37.84c0,20.85771 16.98229,37.84 37.84,37.84c20.85771,0 37.84,-16.98229 37.84,-37.84c0,-20.85771 -16.98229,-37.84 -37.84,-37.84zM86,17.2c15.97472,0 29.05286,12.01093 30.75844,27.52h-13.90781c-1.60606,-7.82465 -8.56983,-13.76 -16.85063,-13.76c-8.2808,0 -15.24457,5.93535 -16.85063,13.76h-13.90781c1.70557,-15.50907 14.78372,-27.52 30.75844,-27.52zM86,37.84c5.74032,0 10.32,4.57968 10.32,10.32c0,5.74032 -4.57968,10.32 -10.32,10.32c-5.74032,0 -10.32,-4.57968 -10.32,-10.32c0,-5.74032 4.57968,-10.32 10.32,-10.32zM55.24156,51.6h13.90781c1.60606,7.82465 8.56983,13.76 16.85063,13.76c8.2808,0 15.24457,-5.93535 16.85063,-13.76h13.90781c-1.70557,15.50907 -14.78372,27.52 -30.75844,27.52c-15.97472,0 -29.05286,-12.01093 -30.75844,-27.52zM44.72,86c-20.85771,0 -37.84,16.98229 -37.84,37.84c0,20.85771 16.98229,37.84 37.84,37.84c20.85771,0 37.84,-16.98229 37.84,-37.84c0,-20.85771 -16.98229,-37.84 -37.84,-37.84zM127.28,86c-20.85771,0 -37.84,16.98229 -37.84,37.84c0,20.85771 16.98229,37.84 37.84,37.84c20.85771,0 37.84,-16.98229 37.84,-37.84c0,-20.85771 -16.98229,-37.84 -37.84,-37.84zM44.72,92.88c15.97472,0 29.05286,12.01093 30.75844,27.52h-13.90781c-1.60606,-7.82465 -8.56983,-13.76 -16.85063,-13.76c-8.2808,0 -15.24457,5.93535 -16.85062,13.76h-13.90781c1.70557,-15.50907 14.78372,-27.52 30.75844,-27.52zM127.28,92.88c15.97472,0 29.05286,12.01093 30.75844,27.52h-13.90781c-1.60606,-7.82465 -8.56983,-13.76 -16.85063,-13.76c-8.2808,0 -15.24457,5.93535 -16.85063,13.76h-13.90781c1.70557,-15.50907 14.78372,-27.52 30.75844,-27.52zM44.72,113.52c5.74032,0 10.32,4.57968 10.32,10.32c0,5.74032 -4.57968,10.32 -10.32,10.32c-5.74032,0 -10.32,-4.57968 -10.32,-10.32c0,-5.74032 4.57968,-10.32 10.32,-10.32zM127.28,113.52c5.74032,0 10.32,4.57968 10.32,10.32c0,5.74032 -4.57968,10.32 -10.32,10.32c-5.74032,0 -10.32,-4.57968 -10.32,-10.32c0,-5.74032 4.57968,-10.32 10.32,-10.32zM13.96156,127.28h13.90781c1.60606,7.82465 8.56983,13.76 16.85063,13.76c8.2808,0 15.24456,-5.93535 16.85063,-13.76h13.90781c-1.70557,15.50907 -14.78372,27.52 -30.75844,27.52c-15.97472,0 -29.05287,-12.01093 -30.75844,-27.52zM96.52156,127.28h13.90781c1.60606,7.82465 8.56983,13.76 16.85063,13.76c8.2808,0 15.24457,-5.93535 16.85063,-13.76h13.90781c-1.70557,15.50907 -14.78372,27.52 -30.75844,27.52c-15.97472,0 -29.05286,-12.01093 -30.75844,-27.52z"></path></g></g></svg>