<svg xmlns="http://www.w3.org/2000/svg" x="0px" y="0px"
width="32" height="32"
viewBox="0 0 172 172"
style=" fill:#000000;"><g fill="none" fill-rule="nonzero" stroke="none" stroke-width="1" stroke-linecap="butt" stroke-linejoin="miter" stroke-miterlimit="10" stroke-dasharray="" stroke-dashoffset="0" font-family="none" font-weight="none" font-size="none" text-anchor="none" style="mix-blend-mode: normal"><path d="M0,172v-172h172v172z" fill="none"></path><g fill="#ffffff"><path d="M86,6.88c-43.43056,0 -78.74286,35.10248 -79.10656,78.44813c-0.08306,0.43051 -0.08306,0.87293 0,1.30344c0.34204,43.36428 35.66249,78.48844 79.10656,78.48844c43.43056,0 78.74286,-35.10248 79.10656,-78.44813c0.08306,-0.43051 0.08306,-0.87293 0,-1.30344c-0.34204,-43.36428 -35.66249,-78.48844 -79.10656,-78.48844zM86,13.76c38.78435,0 70.36069,30.46393 72.15265,68.8h-37.92734c-1.73508,-17.34907 -16.42957,-30.96 -34.22531,-30.96c-17.79574,0 -32.49024,13.61093 -34.22531,30.96h-37.92734c1.79197,-38.33607 33.3683,-68.8 72.15266,-68.8zM86,58.48c15.10355,0 27.28325,12.06643 27.49985,27.11687c-0.03375,0.27668 -0.03375,0.55644 0,0.83313c-0.23081,15.03785 -12.40534,27.09 -27.49985,27.09c-15.10355,0 -27.28325,-12.06643 -27.49985,-27.11687c0.03375,-0.27668 0.03375,-0.55644 0,-0.83313c0.23081,-15.03785 12.40534,-27.09 27.49985,-27.09zM13.84734,89.44h37.92734c1.73508,17.34907 16.42957,30.96 34.22531,30.96c17.79574,0 32.49024,-13.61093 34.22531,-30.96h37.92734c-1.79197,38.33607 -33.3683,68.8 -72.15265,68.8c-38.78435,0 -70.36069,-30.46393 -72.15266,-68.8z"></path></g></g></svg>